<svg xmlns="http://www.w3.org/2000/svg" width="95.429" height="27.643" viewBox="0 0 95.429 27.643">
  <g id="Group_4965" data-name="Group 4965" transform="translate(-1048.321 -905.07)">
    <g id="Group_4963" data-name="Group 4963" transform="translate(20.296 1.41)">
      <circle id="Ellipse_212" data-name="Ellipse 212" cx="5.214" cy="5.214" r="5.214" transform="translate(1028.775 912.268)" fill="#7ef5f5" stroke="#340174" stroke-width="1.5"/>
    </g>
    <line id="Line_368" data-name="Line 368" x1="18" transform="translate(1059.5 918.521)" fill="none" stroke="#340174" stroke-width="1.5"/>
    <g id="Group_4964" data-name="Group 4964" transform="translate(113 190.162)">
      <rect id="Rectangle_21931" data-name="Rectangle 21931" width="73.5" height="26.143" rx="13.071" transform="translate(956.5 715.659)" fill="#7ef5f5" stroke="#340174" stroke-width="1.5"/>
      <path id="Path_47881" data-name="Path 47881" d="M.98,0q.084-.882.112-1.435T1.12-2.758V-8.442q0-1.19-.112-2.758H2.6q-.112,1.568-.112,2.758V-.224H3.668a15.973,15.973,0,0,0,1.967-.1A12.8,12.8,0,0,0,7.574-.756L7.168,0ZM12.7.28a5.327,5.327,0,0,1-2.317-.448A3.032,3.032,0,0,1,8.946-1.722a7.473,7.473,0,0,1-.5-3.038V-8.442q0-1.19-.112-2.758h1.6q-.112,1.568-.112,2.758V-4.76a9.243,9.243,0,0,0,.322,2.7,2.8,2.8,0,0,0,1,1.505,3.041,3.041,0,0,0,1.8.483A2.864,2.864,0,0,0,15.4-1.148a6.224,6.224,0,0,0,.8-3.612V-8.442q0-.812-.021-1.365T16.086-11.2h.448q-.07.84-.091,1.393t-.021,1.365V-4.76a8.679,8.679,0,0,1-.406,2.926,3.03,3.03,0,0,1-1.225,1.61A3.938,3.938,0,0,1,12.7.28Zm10.57,0L18.424-10.486v7.728q0,.812.021,1.365T18.536,0h-.448q.112-1.568.112-2.758V-8.442q0-1.19-.112-2.758h1.54L24.01-1.582,28.182-11.2h1.442q-.07.84-.091,1.393t-.021,1.365v5.684q0,.812.021,1.365T29.624,0h-1.6q.1-1.372.1-2.758v-7.77L23.52.28ZM31.318,0q.112-1.568.112-2.758V-8.442q0-1.19-.112-2.758h1.6Q32.8-9.632,32.8-8.442v5.684q0,1.19.112,2.758ZM42.952-2.758q0,1.19.112,2.758H41.482L34.916-10.654v7.9q0,1.19.112,2.758h-.42q.112-1.568.112-2.758V-8.442q0-1.19-.112-2.758H36.19L42.756-.546v-7.9q0-.812-.021-1.365T42.644-11.2h.42q-.112,1.568-.112,2.758ZM51.716-1.5q.14.476.259.777T52.3,0h-1.75a4.031,4.031,0,0,0-.063-.623q-.049-.245-.126-.5t-.1-.371l-.728-2.576H45.78l-.756,2.646q-.042.126-.119.4t-.126.511A5.085,5.085,0,0,0,44.7,0H44.3a6.626,6.626,0,0,0,.42-1.12l.084-.294,2.562-9.03a2.579,2.579,0,0,0,.056-.35,1.36,1.36,0,0,0-.084-.406h1.652Zm-4.06-9.226L45.836-4.3h3.64Z" transform="translate(966.75 734.248)" fill="#340174"/>
    </g>
  </g>
</svg>
