<svg xmlns="http://www.w3.org/2000/svg" width="163.43" height="49.464" viewBox="0 0 163.43 49.464">
  <g id="Group_4965" data-name="Group 4965" transform="translate(-1042.022 -895.768)">
    <g id="Group_4963" data-name="Group 4963" transform="translate(13.997 0.902)">
      <circle id="Ellipse_212" data-name="Ellipse 212" cx="7.33" cy="7.33" r="7.33" transform="translate(1028.775 912.268)" fill="#7ef5f5" stroke="#340174" stroke-width="1.5"/>
    </g>
    <g id="Group_4964" data-name="Group 4964" transform="translate(111.859 190.859)">
      <rect id="Rectangle_21931" data-name="Rectangle 21931" width="130.135" height="47.964" rx="23.982" transform="translate(962.708 705.659)" fill="#7ef5f5" stroke="#340174" stroke-width="1.5"/>
      <g id="Component_24_1" data-name="Component 24 – 1" transform="translate(984.18 721.048)">
        <path id="Path_47880" data-name="Path 47880" d="M1.68,21q.144-1.512.192-2.46t.048-2.268V6.528q0-2.04-.192-4.728H4.464q-.192,2.688-.192,4.728V20.616H6.288a27.382,27.382,0,0,0,3.372-.18,21.95,21.95,0,0,0,3.324-.732l-.7,1.3Zm20.088.48a9.132,9.132,0,0,1-3.972-.768,5.2,5.2,0,0,1-2.46-2.664,12.812,12.812,0,0,1-.864-5.208V6.528q0-2.04-.192-4.728h2.736q-.192,2.688-.192,4.728V12.84a15.846,15.846,0,0,0,.552,4.632,4.807,4.807,0,0,0,1.716,2.58,5.213,5.213,0,0,0,3.084.828A4.91,4.91,0,0,0,26.4,19.032q1.368-1.848,1.368-6.192V6.528q0-1.392-.036-2.34T27.576,1.8h.768q-.12,1.44-.156,2.388t-.036,2.34V12.84a14.879,14.879,0,0,1-.7,5.016,5.194,5.194,0,0,1-2.1,2.76A6.751,6.751,0,0,1,21.768,21.48Zm18.12,0-8.3-18.456V16.272q0,1.392.036,2.34T31.776,21h-.768q.192-2.688.192-4.728V6.528q0-2.04-.192-4.728h2.64L41.16,18.288,48.312,1.8h2.472q-.12,1.44-.156,2.388t-.036,2.34v9.744q0,1.392.036,2.34T50.784,21H48.048q.168-2.352.168-4.728V2.952L40.32,21.48Zm13.8-.48q.192-2.688.192-4.728V6.528q0-2.04-.192-4.728h2.736q-.192,2.688-.192,4.728v9.744q0,2.04.192,4.728Zm19.944-4.728q0,2.04.192,4.728H71.112L59.856,2.736V16.272q0,2.04.192,4.728h-.72q.192-2.688.192-4.728V6.528q0-2.04-.192-4.728H62.04L73.3,20.064V6.528q0-1.392-.036-2.34T73.1,1.8h.72q-.192,2.688-.192,4.728Zm15.024,2.16q.24.816.444,1.332T89.664,21h-3a6.909,6.909,0,0,0-.108-1.068q-.084-.42-.216-.864t-.18-.636l-1.248-4.416H78.48l-1.3,4.536q-.072.216-.2.684t-.216.876a8.717,8.717,0,0,0-.132.888h-.7a11.358,11.358,0,0,0,.72-1.92l.144-.5L81.192,3.1a4.421,4.421,0,0,0,.1-.6,2.331,2.331,0,0,0-.144-.7h2.832ZM81.7,2.616l-3.12,11.016h6.24Z" transform="translate(-1.68 -1.8)" fill="#340174"/>
      </g>
    </g>
    <line id="Line_368" data-name="Line 368" x1="17" transform="translate(1057.5 920.5)" fill="none" stroke="#340174" stroke-width="1.5"/>
  </g>
</svg>
