<svg xmlns="http://www.w3.org/2000/svg" width="156.519" height="156.89" viewBox="0 0 156.519 156.89">
  <g id="Group_4720" data-name="Group 4720" transform="translate(-397.277 -21.933)">
    <g id="Group_4718" data-name="Group 4718" transform="translate(398.452 106.729)">
      <g id="Group_4717" data-name="Group 4717">
        <path id="Path_46883" data-name="Path 46883" d="M398.295,101.507q3.312-.625,5.779-1.272l11.783-3.1q2.467-.649,5.657-1.737l1.412,5.368a15.709,15.709,0,0,1,.478,7.416q-.691,2.975-4.174,3.891t-5.549-1.332a15.707,15.707,0,0,1-3.234-6.69l-.6-2.292-5.021,1.32q-2.467.651-5.656,1.738ZM410.9,103.9a8.625,8.625,0,0,0,2.582,4.5q1.8,1.541,4.966.71t3.973-3.063a8.622,8.622,0,0,0,.031-5.191l-.6-2.264-11.552,3.039Z" transform="translate(-398.295 -95.396)" fill="#d22eff"/>
        <path id="Path_46884" data-name="Path 46884" d="M415.12,133.521a4.6,4.6,0,0,0-.376,2.337,5.371,5.371,0,0,0,.918,2.254l-.375.249a14.217,14.217,0,0,1-1.88-3.761,5.988,5.988,0,0,1-.083-3.166,9.667,9.667,0,0,1,1.748-3.338,12.607,12.607,0,0,0,1.97-3.411,4.9,4.9,0,0,0,.224-2.651,7.9,7.9,0,0,0-1.181-2.567l-.6-.9-4.328,2.869q-2.124,1.409-4.795,3.467l-1.891-2.853q2.935-1.655,5.06-3.066l10.156-6.733q2.124-1.409,4.795-3.466l3.068,4.627a15.726,15.726,0,0,1,2.841,6.867q.3,3.039-2.7,5.028a5.263,5.263,0,0,1-5.045.806,11.492,11.492,0,0,1-4.644-3.853,7.992,7.992,0,0,1,.656,3.978,9.216,9.216,0,0,1-1.759,4.244A15.8,15.8,0,0,0,415.12,133.521Zm.768-15.218,1.294,1.951a8.627,8.627,0,0,0,3.894,3.432q2.2.88,4.93-.928t2.774-4.18a8.606,8.606,0,0,0-1.643-4.923l-1.294-1.952Z" transform="translate(-397.342 -93.33)" fill="#d22eff"/>
        <path id="Path_46885" data-name="Path 46885" d="M421.81,142.874a11.992,11.992,0,0,1-1.3-6.443,13.025,13.025,0,0,1,7.571-10.58A12.144,12.144,0,0,1,434.6,125a15.378,15.378,0,0,1,11.178,8,12.618,12.618,0,0,1-6.264,17.032,12.11,12.11,0,0,1-6.529.845,15.506,15.506,0,0,1-11.177-8Zm10.293,6.682a10.857,10.857,0,0,0,5.5-1.546,14.986,14.986,0,0,0,6.96-9.726,10.85,10.85,0,0,0-.3-5.715,9.452,9.452,0,0,0-8.75-6.261,10.908,10.908,0,0,0-5.485,1.555,15.012,15.012,0,0,0-6.968,9.737,10.9,10.9,0,0,0,.3,5.7,9.446,9.446,0,0,0,8.749,6.26Z" transform="translate(-394.873 -90.848)" fill="#d22eff"/>
        <path id="Path_46886" data-name="Path 46886" d="M449.138,157.409a11.314,11.314,0,0,1-3.205-5.268,14.763,14.763,0,0,1-.286-6.722,12.8,12.8,0,0,1,2.653-6.01,11.323,11.323,0,0,1,4.979-3.562,11.863,11.863,0,0,1,6.2-.5q6.444,1.129,8.6,7.966l-3.126.275a11.024,11.024,0,0,0-1.559-5.192,5.644,5.644,0,0,0-4-2.574,7.15,7.15,0,0,0-4.745.738,9.87,9.87,0,0,0-3.713,3.631,15.739,15.739,0,0,0-2.064,5.611,16.874,16.874,0,0,0-.013,6.166,9.925,9.925,0,0,0,2.306,4.836,7.744,7.744,0,0,0,4.584,2.449,7.5,7.5,0,0,0,6.707-1.858q2.777-2.545,3.924-7.707l-1.064-.186a23.575,23.575,0,0,0-3.3-.3,16.59,16.59,0,0,0-3.679.3l-1.01-1.883,12.239,2.142-.083.472-2.453-.428-.87,4.966q-.315,1.8-.508,3.248t-.312,3.343l-1.3-.23q.533-1.823.843-3.248t.626-3.226l.285-1.626a12.1,12.1,0,0,1-4.325,5.916,8.786,8.786,0,0,1-6.666,1.178A10.9,10.9,0,0,1,449.138,157.409Z" transform="translate(-391.03 -89.264)" fill="#d22eff"/>
        <path id="Path_46887" data-name="Path 46887" d="M487.027,155.057a4.609,4.609,0,0,0,2.042,1.2,5.348,5.348,0,0,0,2.432-.036l.1.441a14.211,14.211,0,0,1-4.187.382,5.986,5.986,0,0,1-2.979-1.076,9.6,9.6,0,0,1-2.471-2.842,12.619,12.619,0,0,0-2.462-3.077,4.9,4.9,0,0,0-2.386-1.172,7.86,7.86,0,0,0-2.821.163l-1.056.229,1.1,5.074q.54,2.495,1.483,5.729l-3.344.721q-.474-3.333-1.013-5.828l-2.573-11.91q-.54-2.495-1.484-5.729l5.428-1.172a15.7,15.7,0,0,1,7.428-.148q2.942.822,3.7,4.343a5.269,5.269,0,0,1-1.085,4.994,11.524,11.524,0,0,1-5.28,2.92,8,8,0,0,1,3.943.837,9.24,9.24,0,0,1,3.313,3.182A15.707,15.707,0,0,0,487.027,155.057ZM473.133,148.8l2.289-.5a8.619,8.619,0,0,0,4.614-2.378q1.621-1.731.93-4.929t-2.883-4.106a8.614,8.614,0,0,0-5.184-.261l-2.288.494Z" transform="translate(-387.635 -89.189)" fill="#d22eff"/>
        <path id="Path_46888" data-name="Path 46888" d="M506.917,143.75c.525.476.971.855,1.34,1.133s.837.6,1.406.955l-3.2,1.95a8.713,8.713,0,0,0-.81-1.071c-.241-.262-.507-.523-.793-.783s-.488-.446-.6-.562l-4.2-3.907-6.871,4.18,1.564,5.689c.042.182.118.472.226.863s.222.749.338,1.075a10.7,10.7,0,0,0,.436,1.035l-.743.451a14.23,14.23,0,0,0-.479-2.519l-.173-.633-5.369-19.39a5.418,5.418,0,0,0-.287-.7,2.912,2.912,0,0,0-.6-.65l3.024-1.841ZM489.2,131.377l3.825,13.8,6.667-4.056Z" transform="translate(-384.444 -90.209)" fill="#d22eff"/>
        <path id="Path_46889" data-name="Path 46889" d="M522.557,135,497.88,129.39l13.223,9.979q1.39,1.049,2.364,1.726t2.5,1.643l-.578.769q-2.538-2.22-4.574-3.755l-9.726-7.338q-2.036-1.536-4.864-3.37l1.988-2.635,22.116,4.919-11.071-19.556,1.862-2.469q1.345,1.207,2.266,1.955t2.308,1.8l9.727,7.339q1.389,1.049,2.362,1.727t2.5,1.644l-2.06,2.73q-2.221-1.937-4.593-3.728l-13.3-10.033,12.547,21.836Z" transform="translate(-383.188 -93.251)" fill="#d22eff"/>
        <path id="Path_46890" data-name="Path 46890" d="M531.3,113.475a12.221,12.221,0,0,1-6.8,2.163l-.474-2.627a12.307,12.307,0,0,0,4.61-.087,8.111,8.111,0,0,0,3.59-1.729,6.3,6.3,0,0,0,1.992-3.134,5.11,5.11,0,0,0-.176-3.682,4.232,4.232,0,0,0-2.872-2.2,3.9,3.9,0,0,0-2.292.055,10.05,10.05,0,0,0-2.452,1.225q-1.285.854-3.634,2.654l-1.11.84q-2.512,1.941-3.814,2.79a8.011,8.011,0,0,1-2.5,1.135,5.11,5.11,0,0,1-2.589-.11,4.221,4.221,0,0,1-2.969-2.569,6.925,6.925,0,0,1-.05-4.519,8.089,8.089,0,0,1,2.579-4.107,11.891,11.891,0,0,1,5-2.3l.215,2.554a9.422,9.422,0,0,0-4.639.688,4.971,4.971,0,0,0-2.732,3.437,4.623,4.623,0,0,0,.046,3.148,2.957,2.957,0,0,0,2.013,1.707,3.493,3.493,0,0,0,1.908.038,6.523,6.523,0,0,0,1.854-.88q.959-.634,2.846-2.127l.8-.616q3.165-2.474,4.72-3.516a11.039,11.039,0,0,1,3.1-1.48,5.87,5.87,0,0,1,3.247.044,5.739,5.739,0,0,1,2.918,1.76A5.608,5.608,0,0,1,534.9,104.9a8.27,8.27,0,0,1-.276,3.463A9.529,9.529,0,0,1,531.3,113.475Z" transform="translate(-381.155 -95.106)" fill="#d22eff"/>
      </g>
    </g>
    <g id="Group_4719" data-name="Group 4719" transform="translate(397.277 21.933)">
      <path id="Path_46891" data-name="Path 46891" d="M419.7,73.64q1.063-.052,1.75-.149c.458-.065,1.013-.171,1.668-.322l-.882,3.645a8.733,8.733,0,0,0-1.33-.181c-.357-.015-.727-.01-1.114.008s-.66.031-.825.031l-5.734.22-1.89,7.819,5.133,2.906c.162.1.418.252.771.449s.688.373,1,.521a10.884,10.884,0,0,0,1.041.421l-.2.845a14.233,14.233,0,0,0-2.123-1.438l-.57-.323-17.525-9.885a5.793,5.793,0,0,0-.7-.293,2.869,2.869,0,0,0-.889-.029l.832-3.443Zm-21.268,3.815,12.474,7.027,1.833-7.585Z" transform="translate(-397.277 -14.029)" fill="#d22eff"/>
      <path id="Path_46892" data-name="Path 46892" d="M422.725,75.731q-2.756-1.932-4.946-3.247l-10.448-6.268q-2.187-1.311-5.193-2.835l3.443-5.739a13.528,13.528,0,0,1,3.957-4.467q2.105-1.38,4.807.24a4.652,4.652,0,0,1,2.275,2.8,6.711,6.711,0,0,1-.607,4.221,9.743,9.743,0,0,1,4.379-3.044,6,6,0,0,1,5.08.808,5.5,5.5,0,0,1,3.061,4.844,13.1,13.1,0,0,1-2.163,6.613Zm-8.8-12.279a6.561,6.561,0,0,0,1.24-4.4,4.567,4.567,0,0,0-2.394-3.013,4.034,4.034,0,0,0-4.158-.359,8.055,8.055,0,0,0-3.145,3.083L404.186,60.9l8.288,4.974Zm11.463,6.911a8.531,8.531,0,0,0,1.383-5.224,5.454,5.454,0,0,0-2.991-4.173,6.609,6.609,0,0,0-4.018-1.117,5.866,5.866,0,0,0-3.172,1.23,8.887,8.887,0,0,0-2.1,2.363l-1.606,2.678,11.066,6.638Z" transform="translate(-396.527 -17.211)" fill="#d22eff"/>
      <path id="Path_46893" data-name="Path 46893" d="M432.762,59.115a12.012,12.012,0,0,1-6.531-.743,13.022,13.022,0,0,1-7.751-10.448,12.159,12.159,0,0,1,1.183-6.464A15.381,15.381,0,0,1,430.7,33.269a12.618,12.618,0,0,1,14.292,11.181,12.108,12.108,0,0,1-1.195,6.474,15.509,15.509,0,0,1-11.038,8.189Zm9.515-7.75a10.852,10.852,0,0,0,.212-5.708,14.973,14.973,0,0,0-7.125-9.6,10.837,10.837,0,0,0-5.532-1.464A9.444,9.444,0,0,0,421.191,41a10.9,10.9,0,0,0-.2,5.7,15.022,15.022,0,0,0,7.134,9.617,10.892,10.892,0,0,0,5.51,1.459,9.45,9.45,0,0,0,8.642-6.408Z" transform="translate(-394.014 -20.208)" fill="#d22eff"/>
      <path id="Path_46894" data-name="Path 46894" d="M451.534,48.532A6.507,6.507,0,0,1,447.774,46a16.016,16.016,0,0,1-2.55-6.089l-1.816-7.682q-.589-2.483-1.6-5.7l3.33-.787q.54,3.326,1.127,5.809l1.817,7.682a19.773,19.773,0,0,0,2,5.476,6.012,6.012,0,0,0,2.831,2.647,6.52,6.52,0,0,0,3.99.121,6.143,6.143,0,0,0,4.609-3.465q1.134-2.642-.117-7.929L459.589,28.4q-.4-1.693-.718-2.836t-.877-2.861l.934-.223q.27,1.79.5,2.951t.63,2.859l1.816,7.68a18.565,18.565,0,0,1,.6,6.3,6.488,6.488,0,0,1-1.761,3.963,8.432,8.432,0,0,1-4.117,2.085A11.411,11.411,0,0,1,451.534,48.532Z" transform="translate(-390.407 -21.848)" fill="#d22eff"/>
      <path id="Path_46895" data-name="Path 46895" d="M468.738,46.534q.54-3.326.771-5.866l1.585-17.546-.359-.032a16.758,16.758,0,0,0-6.294.636l-1.165-1.793,18.652,1.686-1.467,1.555a16.726,16.726,0,0,0-6.079-1.754l-.358-.033-1.586,17.546q-.229,2.542-.293,5.91Z" transform="translate(-387.096 -21.933)" fill="#d22eff"/>
      <path id="Path_46896" data-name="Path 46896" d="M489.2,50.46a12.027,12.027,0,0,1-1.309-6.441,13.025,13.025,0,0,1,7.547-10.6,12.14,12.14,0,0,1,6.513-.87,15.39,15.39,0,0,1,11.2,7.974A12.4,12.4,0,0,1,500.4,58.432a15.514,15.514,0,0,1-11.2-7.972Zm10.31,6.658a10.864,10.864,0,0,0,5.493-1.558,14.981,14.981,0,0,0,6.937-9.743,10.839,10.839,0,0,0-.315-5.712,9.439,9.439,0,0,0-8.764-6.24,10.9,10.9,0,0,0-5.482,1.566,15,15,0,0,0-6.945,9.754,10.9,10.9,0,0,0,.312,5.694,9.449,9.449,0,0,0,8.764,6.24Z" transform="translate(-383.303 -20.313)" fill="#d22eff"/>
      <path id="Path_46897" data-name="Path 46897" d="M505.054,65.369a6.483,6.483,0,0,1,1.266-4.353,16.014,16.014,0,0,1,5.02-4.286l6.76-4.072q2.185-1.318,4.941-3.258l1.765,2.931q-3,1.529-5.188,2.846l-6.76,4.072a19.839,19.839,0,0,0-4.606,3.581,6.021,6.021,0,0,0-1.656,3.5,6.519,6.519,0,0,0,1.1,3.837,6.134,6.134,0,0,0,4.7,3.332q2.86.272,7.513-2.53l6.762-4.075q1.491-.9,2.483-1.547t2.457-1.708l.5.823q-1.619.8-2.658,1.374t-2.529,1.472l-6.762,4.072a18.561,18.561,0,0,1-5.822,2.491,6.489,6.489,0,0,1-4.31-.467,8.44,8.44,0,0,1-3.241-3.286A11.4,11.4,0,0,1,505.054,65.369Z" transform="translate(-380.655 -17.696)" fill="#d22eff"/>
      <path id="Path_46898" data-name="Path 46898" d="M516.734,89.3a4.582,4.582,0,0,0-1.217,2.03,5.344,5.344,0,0,0,.015,2.433l-.442.092a14.217,14.217,0,0,1-.347-4.189,5.964,5.964,0,0,1,1.1-2.971A9.626,9.626,0,0,1,518.7,84.25a12.614,12.614,0,0,0,3.1-2.435,4.888,4.888,0,0,0,1.191-2.378,7.886,7.886,0,0,0-.142-2.821l-.219-1.058-5.083,1.057q-2.5.518-5.739,1.438l-.7-3.35q3.34-.45,5.838-.968l11.929-2.479q2.495-.519,5.739-1.438l1.13,5.437a15.722,15.722,0,0,1,.088,7.43q-.845,2.933-4.371,3.667a5.264,5.264,0,0,1-4.985-1.127,11.507,11.507,0,0,1-2.879-5.3,8,8,0,0,1-.868,3.935,9.2,9.2,0,0,1-3.211,3.288A15.909,15.909,0,0,0,516.734,89.3ZM523.1,75.46l.477,2.291a8.609,8.609,0,0,0,2.342,4.632q1.718,1.633,4.922.97t4.128-2.851a8.626,8.626,0,0,0,.3-5.181l-.477-2.291Z" transform="translate(-379.717 -14.546)" fill="#d22eff"/>
    </g>
  </g>
</svg>
