<svg xmlns="http://www.w3.org/2000/svg" width="148.989" height="226.931" viewBox="0 0 148.989 226.931"><defs><style>.a{fill:#d22eff;opacity:0.4;}.b,.c{fill:#fff;}.c{stroke:#29004a;stroke-miterlimit:10;stroke-width:4px;}</style></defs><g transform="translate(-912.006 -8248.394)"><path class="a" d="M4386.527,1284.044c27.144-18.417,67.47-1.88,80.731,30.725,5.5,13.521,13.7,33.178,1.313,50.937a34.559,34.559,0,0,1-19.938,13.85c-20.489,5.188-26.927.213-42.48-7.174C4378.364,1357.914,4363.406,1305.53,4386.527,1284.044Z" transform="translate(-3426.201 6981.354)"/><g transform="translate(979.523 8377.233)"><path class="b" d="M4452.347,1569.276c2.051.315,4.62-.094,6.671.221a3.551,3.551,0,0,0-3.014-2.235A3.97,3.97,0,0,0,4452.347,1569.276Z" transform="translate(-4450.979 -1566.405)"/><path class="b" d="M4458.335,1569.351l-1.381-.212a19.633,19.633,0,0,0-3.193-.1,20.825,20.825,0,0,1-3.478-.12l-1.242-.19.665-1.066a4.766,4.766,0,0,1,4.481-2.394,4.336,4.336,0,0,1,3.67,2.771Zm-6.133-1.953c.5.007,1.018,0,1.525-.015s1.044-.022,1.565-.016a3.582,3.582,0,0,0-1.348-.463A2.536,2.536,0,0,0,4452.2,1567.4Z" transform="translate(-4449.042 -1565.229)"/></g><path class="b" d="M4453.231,1574.009a6.665,6.665,0,0,1-.95-.065,4.4,4.4,0,0,1-3.083-1.8l1.378-.915a2.763,2.763,0,0,0,1.942,1.08,8.439,8.439,0,0,0,2.692-.183,4.089,4.089,0,0,0,1.118-.322.949.949,0,0,0,.5-.516l1.592.449a2.571,2.571,0,0,1-1.326,1.535,5.486,5.486,0,0,1-1.576.48A12.4,12.4,0,0,1,4453.231,1574.009Z" transform="translate(-3469.609 6808.489)"/><path class="c" d="M4438.308,1585.805" transform="translate(-3463.227 6799.941)"/><path class="c" d="M4484.265,1592.941" transform="translate(-3490.17 6795.757)"/><path class="c" d="M4436.909,1607.621" transform="translate(-3462.406 6787.151)"/><path class="b" d="M4428.017,1639.917a23.774,23.774,0,0,1-5.778-.728c-7.217-1.807-13.031-6.644-15.554-12.94-4.684-10.484-.045-21.8,5.884-28.911a13.339,13.339,0,0,0,.831-4.891c.155-2.859.329-6.08,2.919-7.818a7.08,7.08,0,0,1,.04-.981.827.827,0,1,1,1.645.181,5.408,5.408,0,0,0,0,1.159l.059.55-.485.264c-2.224,1.212-2.369,3.894-2.522,6.735a14.285,14.285,0,0,1-1.047,5.631l-.043.084-.061.073c-5.639,6.727-10.095,17.425-5.692,27.278a20.7,20.7,0,0,0,14.432,11.98c6.39,1.6,12.651.337,17.175-3.467,7.54-6.794,9.959-18.727,5.485-27.147-.45-.819-1-1.641-1.522-2.434a20.219,20.219,0,0,1-2.59-4.8,27.424,27.424,0,0,1-.714-4.61c-.433-4.331-.841-8.422-4.9-9.128l-2.744-.478,2.561-1.1a2.421,2.421,0,0,0,1.014-1.455c1.089-3.046.643-9.13-.226-10.8A8.969,8.969,0,0,0,4431.7,1568l-.111-.047-.093-.077a7.164,7.164,0,0,1-1.488-1.8c-.6-.932-.931-1.383-1.918-1.447l-.155-.025a2.954,2.954,0,0,0-2.349.3,2.586,2.586,0,0,0-1.144,1.762l-.042.218-.145.167a6.493,6.493,0,0,1-2.862,1.74,4.235,4.235,0,0,0-2.583,1.819.827.827,0,1,1-1.445-.807,5.752,5.752,0,0,1,3.443-2.56,5.4,5.4,0,0,0,2.06-1.127,4.225,4.225,0,0,1,1.832-2.611,4.579,4.579,0,0,1,3.574-.518,3.823,3.823,0,0,1,3.125,2.2,6.009,6.009,0,0,0,1.062,1.348,10.578,10.578,0,0,1,5.182,4.868c1.16,2.231,1.534,8.751.324,12.134a5.841,5.841,0,0,1-.614,1.264c3.912,1.6,4.383,6.308,4.77,10.173a26.344,26.344,0,0,0,.65,4.292,18.741,18.741,0,0,0,2.387,4.368c.546.822,1.11,1.673,1.6,2.562,4.819,9.07,2.246,21.883-5.854,29.181A19.815,19.815,0,0,1,4428.017,1639.917Z" transform="translate(-3443.561 6813.413)"/><path class="b" d="M4442.341,1616.832a27.792,27.792,0,0,1-8.787-1.237.827.827,0,1,1,.523-1.57c5.412,1.8,11.87,1.1,17.567.479l.908-.1a.827.827,0,1,1,.178,1.645l-.906.1A87.948,87.948,0,0,1,4442.341,1616.832Z" transform="translate(-3460.105 6783.421)"/><path class="b" d="M4432.189,1640.735a.828.828,0,0,1-.78-1.1c.473-1.345.979-2.712,1.468-4.035,2.17-5.861,4.413-11.921,4.613-18.154a.828.828,0,0,1,1.654.053c-.21,6.5-2.5,12.69-4.716,18.675-.487,1.316-.991,2.677-1.459,4.009A.829.829,0,0,1,4432.189,1640.735Z" transform="translate(-3459.152 6781.861)"/><path class="b" d="M4442,1660.079l-.612-.169a1.682,1.682,0,0,1-1.332-1.292,2.838,2.838,0,0,1,1.1-2.442.875.875,0,0,0-.09-.072c-.681-.474-2.069-.2-3.126,1.086a.827.827,0,1,1-1.277-1.052c1.678-2.038,4.039-2.308,5.352-1.391a2.548,2.548,0,0,1,.549.52,2.355,2.355,0,0,1,1.736-.076,2.791,2.791,0,0,1,1.265.71,4.533,4.533,0,0,1,1.468-.972,1.411,1.411,0,0,1,1.69.445,4.056,4.056,0,0,1,.262.313,4.844,4.844,0,0,1,3.849-.948.827.827,0,0,1-.419,1.6,3.326,3.326,0,0,0-2.651.845,2.263,2.263,0,0,1,.035,1.331,1.553,1.553,0,0,1-1.282,1.053l-.729.122-.2-.709a2.611,2.611,0,0,1,.262-2.039,2.614,2.614,0,0,0-.329-.436,3.474,3.474,0,0,0-1.07.851l.008.027a2.331,2.331,0,0,1-.658,2.428l-.272.239-.36-.039a1.283,1.283,0,0,1-1.215-1.148,2.787,2.787,0,0,1,.545-1.7,1.154,1.154,0,0,0-.6-.373l-.1-.02-.1-.046a.858.858,0,0,0-.571.1,4.956,4.956,0,0,1-.8,2.7Z" transform="translate(-3462.152 6759.815)"/><path class="b" d="M4472.626,1640.232a.828.828,0,0,1-.818-.7c-3.013-5.353-3.356-11.793-3.687-18.022-.078-1.475-.152-2.868-.262-4.249a.828.828,0,0,1,1.65-.13c.11,1.4.188,2.87.265,4.29.324,6.1.661,12.416,3.569,17.461l.111.192v.332A.828.828,0,0,1,4472.626,1640.232Z" transform="translate(-3480.549 6782.022)"/><path class="b" d="M4363.976,1675.386a.829.829,0,0,1-.782-.556,42.525,42.525,0,0,1,7.077-40.1.827.827,0,0,1,1.282,1.046,40.835,40.835,0,0,0-6.795,38.509.828.828,0,0,1-.51,1.053A.809.809,0,0,1,4363.976,1675.386Z" transform="translate(-3417.879 6771.435)"/><path class="b" d="M4412.71,1706.7c-9.383,0-18.069-4.995-23.413-13.529-6.085-9.719-6.679-21.657-1.55-31.157a.828.828,0,0,1,1.457.786c-4.847,8.976-4.274,20.277,1.5,29.492,5.317,8.493,13.719,13.13,23.081,12.73a.827.827,0,1,1,.071,1.653C4413.472,1706.7,4413.089,1706.7,4412.71,1706.7Z" transform="translate(-3431.549 6755.513)"/><path class="b" d="M4513.948,1682.462a.827.827,0,0,1-.626-1.367c8.035-9.347,10.064-27.042.751-36.731a.828.828,0,1,1,1.193-1.147c4.609,4.8,6.964,11.726,6.628,19.514a32.369,32.369,0,0,1-7.318,19.443A.827.827,0,0,1,4513.948,1682.462Z" transform="translate(-3507.088 6766.43)"/><path class="b" d="M4412.723,1765.667c-13.718,0-26.345-4.919-31.734-12.455a.827.827,0,1,1,1.346-.962c5.193,7.262,18.281,12.09,31.815,11.744,14.62-.375,26.728-6.4,33.218-16.537a.828.828,0,0,1,1.394.892c-6.792,10.605-19.392,16.91-34.569,17.3Q4413.456,1765.667,4412.723,1765.667Z" transform="translate(-3429.529 6705.39)"/><path class="b" d="M4535.17,1667.913a.828.828,0,0,1-.682-1.295c2.83-4.136,6.691-18.623,3.673-30.424-1.723-6.739-5.4-11.582-10.935-14.393a.828.828,0,1,1,.75-1.476c5.976,3.037,9.942,8.237,11.789,15.458,3.138,12.272-.937,27.423-3.911,31.768A.827.827,0,0,1,4535.17,1667.913Z" transform="translate(-3515.092 6779.754)"/><path class="b" d="M4603.991,1675.059a5.854,5.854,0,0,1-2.939-.77,5.343,5.343,0,0,1,0-8.97,6,6,0,0,1,5.879,0,5.344,5.344,0,0,1,0,8.97A5.853,5.853,0,0,1,4603.991,1675.059Zm0-8.853a4.2,4.2,0,0,0-2.1.542,3.246,3.246,0,0,0-1.619,3.044v.024a3.245,3.245,0,0,0,1.619,3.044,4.354,4.354,0,0,0,4.21,0,3.7,3.7,0,0,0,0-6.112A4.212,4.212,0,0,0,4603.991,1666.206Z" transform="translate(-3557.211 6753.774)"/><g transform="translate(914.611 8378.57)"><path class="b" d="M4603.159,1763.722a.865.865,0,0,1-.862-.781c-.576-5.307-3.751-11.26-9.357-11.785a.875.875,0,0,1-.1-1.729c6.277-1.32,8.905-8.263,9.912-12.285a.885.885,0,0,1,.851-.662.909.909,0,0,1,.867.729c1.225,5.624,4.3,9.039,8.9,9.875a.958.958,0,0,1,.9.66l.135.507-.4.344c-4.5,3.8-9.605,8.1-9.978,14.3a.868.868,0,0,1-.851.824Zm.784-.962v0Zm-8.15-12.608c3.664,1.452,6.13,5.012,7.354,8.857,1.54-4.354,5.086-7.67,8.553-10.628-3.772-1.138-6.574-3.994-8.106-8.24C4601.9,1745.042,4599.214,1748.484,4595.792,1750.152Zm-2.607.895h0Z" transform="translate(-4468.026 -1666.968)"/><path class="b" d="M4303.159,1595.7a.865.865,0,0,1-.862-.781c-.576-5.307-3.751-11.26-9.358-11.784a.875.875,0,0,1-.1-1.729c6.277-1.32,8.9-8.264,9.912-12.285a.865.865,0,0,1,.838-.662h.014a.908.908,0,0,1,.866.729c1.225,5.625,4.3,9.039,8.9,9.875a.97.97,0,0,1,.9.661l.135.507-.4.344c-4.5,3.8-9.6,8.1-9.978,14.3a.869.869,0,0,1-.851.824Zm.783-.963v0Zm-8.149-12.607c3.664,1.452,6.129,5.012,7.354,8.856,1.54-4.354,5.085-7.67,8.553-10.628-3.772-1.138-6.573-3.993-8.106-8.24C4301.9,1577.022,4299.214,1580.465,4295.792,1582.133Zm-2.607.895h0Z" transform="translate(-4292.141 -1568.461)"/></g><path class="b" d="M4374.767,1418.019l-.232-.554a30.186,30.186,0,0,0-14.4-15.641c-.34-.166-.686-.327-1.032-.487a11.134,11.134,0,0,1-7.42-8.268l-4.007-11.224c-1.833-5.133-3.729-10.442-4.02-16.062a58.447,58.447,0,0,1,1.21-12.7c.963-5.685,1.873-11.056.567-16.366-.312-1.268-.76-2.542-1.195-3.774a28.25,28.25,0,0,1-1.924-12.652v-.249l.252-44.144a.827.827,0,0,1,.827-.822h0a.827.827,0,0,1,.822.832l-.253,44.393a26.728,26.728,0,0,0,1.829,12.092c.447,1.269.91,2.582,1.241,3.929,1.388,5.643.407,11.436-.542,17.038a57.272,57.272,0,0,0-1.189,12.335c.278,5.378,2.132,10.57,3.925,15.591l4.008,11.224a13.264,13.264,0,0,0,2.513,4.83,13.1,13.1,0,0,0,4.046,2.495c.355.165.71.331,1.06.5a31.76,31.76,0,0,1,14.966,15.93c1.55-.158,3.138-.486,3.9-1.606a5.053,5.053,0,0,0,.6-1.519,25.63,25.63,0,0,0-4.106-21.467,5.483,5.483,0,0,0-1.815-1.737,5.618,5.618,0,0,0-2.818-.313,29.592,29.592,0,0,0-5.034.808.828.828,0,1,1-.4-1.606,31.313,31.313,0,0,1,5.315-.853,7.041,7.041,0,0,1,3.666.477,6.908,6.908,0,0,1,2.416,2.236,27.324,27.324,0,0,1,4.376,22.883,6.467,6.467,0,0,1-.836,2.024c-1.381,2.022-4.208,2.252-5.727,2.375Z" transform="translate(-3406.941 6982.115)"/><path class="b" d="M4409.361,1524.118a.849.849,0,0,1-.181-.02.827.827,0,0,1-.627-.988c.447-2-.2-3.512-1.027-5.422-.267-.62-.544-1.26-.8-1.961l-1.871-5.121a8.21,8.21,0,0,1-.708-4.374.827.827,0,0,1,1.624.318,6.71,6.71,0,0,0,.637,3.488l1.872,5.121c.24.656.506,1.275.764,1.873.868,2.011,1.687,3.911,1.124,6.438A.828.828,0,0,1,4409.361,1524.118Z" transform="translate(-3443.145 6846.985)"/><path class="b" d="M4424.318,1534.51a.827.827,0,0,1-.756-.491c-1.858-4.17-4.856-7.813-7.757-11.337a70.8,70.8,0,0,1-6.4-8.641l-.153-.261a7.447,7.447,0,0,0-1.456-1.967,1.858,1.858,0,0,0-1.9-.417.827.827,0,1,1-.765-1.467,3.478,3.478,0,0,1,3.732.618,8.758,8.758,0,0,1,1.815,2.393l.151.256a69.51,69.51,0,0,0,6.257,8.434c2.971,3.608,6.042,7.34,7.991,11.715a.828.828,0,0,1-.755,1.164Z" transform="translate(-3443.512 6844.608)"/><path class="b" d="M4382.731,1496.715a6.608,6.608,0,0,1-1.131-.12,15.849,15.849,0,0,1-7.232-2.672,9.346,9.346,0,0,1-2.775-3.52.827.827,0,0,1,1.508-.682,7.683,7.683,0,0,0,2.282,2.894,14.418,14.418,0,0,0,6.5,2.348,2.842,2.842,0,0,0,1.34.027.827.827,0,1,1,.55,1.561A3.1,3.1,0,0,1,4382.731,1496.715Z" transform="translate(-3424.068 6856.559)"/><path class="b" d="M4411.354,1436.648h0a.827.827,0,0,1-.826-.829,19.416,19.416,0,0,0-6.312-13.815,30.573,30.573,0,0,0-13.91-7.235.827.827,0,1,1,.4-1.6,32.184,32.184,0,0,1,14.648,7.645,21.068,21.068,0,0,1,6.823,15.014A.826.826,0,0,1,4411.354,1436.648Z" transform="translate(-3434.715 6901.173)"/><path class="b" d="M4426.449,1486.776a.827.827,0,0,1-.56-1.437c4.3-3.943,6.956-9.4,9.527-14.674,1.078-2.211,2.192-4.5,3.419-6.663a.827.827,0,0,1,1.44.816c-1.2,2.12-2.3,4.384-3.372,6.572-2.639,5.414-5.368,11.013-9.9,15.168A.824.824,0,0,1,4426.449,1486.776Z" transform="translate(-3455.787 6871.599)"/><path class="b" d="M4463.252,1443.043a.829.829,0,0,1-.788-1.08,38.048,38.048,0,0,0,1.425-6.2.827.827,0,1,1,1.638.233,39.583,39.583,0,0,1-1.486,6.475A.828.828,0,0,1,4463.252,1443.043Z" transform="translate(-3477.365 6888.328)"/><path class="b" d="M4450.087,1312.384a.828.828,0,0,1-.77-.524c-.817-2.071.438-4.246,1.267-5.686,1.084-1.879,1.344-3.234.8-4.141a4.529,4.529,0,0,0-.928-.972c-.237-.207-.484-.422-.717-.667-1.66-1.75-1.921-4.28-2.034-6.514-.2-3.984-.241-8.027-.114-12.018a.827.827,0,0,1,1.654.052c-.126,3.946-.088,7.943.112,11.882.1,2.027.311,4.118,1.583,5.458.178.188.385.368.6.559a5.9,5.9,0,0,1,1.255,1.364c1.185,1.958.124,4.261-.777,5.824-.888,1.541-1.645,3.025-1.161,4.252a.828.828,0,0,1-.467,1.073A.814.814,0,0,1,4450.087,1312.384Z" transform="translate(-3468.623 6978.608)"/><path class="b" d="M4387.292,1275.05a.824.824,0,0,1-.473-.149,32.971,32.971,0,0,0-13.856-5.231,78.051,78.051,0,0,0-15.115-.553c-4.739.192-9.693.594-13.62,3.162a.827.827,0,1,1-.905-1.385c4.279-2.8,9.489-3.23,14.458-3.431a79.489,79.489,0,0,1,15.44.572,34.6,34.6,0,0,1,14.546,5.509.828.828,0,0,1-.475,1.506Z" transform="translate(-3407.316 6986.653)"/><path class="b" d="M4491.325,1419.826a.828.828,0,0,1-.827-.812c-.271-14.164-3.33-25.953-9.092-35.04-1.424-2.246-3.07-4.416-4.663-6.513l-11.034-14.54c-1.948-2.566-3.962-5.219-6.6-7.074-2.827-1.987-6.075-2.663-8.69-1.812a.827.827,0,0,1-.512-1.573c3.109-1.013,6.9-.252,10.154,2.031a32.894,32.894,0,0,1,6.967,7.428l11.031,14.534c1.617,2.131,3.285,4.329,4.746,6.633,5.927,9.348,9.072,21.424,9.35,35.9a.828.828,0,0,1-.812.843Z" transform="translate(-3469.689 6937.005)"/><path class="b" d="M4513.207,1489.274a.827.827,0,0,1-.724-1.226,16.772,16.772,0,0,1,9.441-7.8.828.828,0,1,1,.51,1.575,15.1,15.1,0,0,0-8.5,7.025A.828.828,0,0,1,4513.207,1489.274Z" transform="translate(-3506.652 6861.853)"/><path class="b" d="M4478.1,1488.459a.826.826,0,0,1-.652-.319,39.881,39.881,0,0,0-5.188-5.17c-.585-.516-1.171-1.033-1.747-1.559-2.3-2.1-4.824-4.706-6.086-8.07l-.034-.089-.012-.094a4.888,4.888,0,0,1,1.2-3.97,8.67,8.67,0,0,1,10.69-1.8,15.772,15.772,0,0,1,2.934,2.449c1.152,1.134,2.591,2.451,3.983,3.724s2.854,2.611,4.027,3.767a.827.827,0,1,1-1.161,1.179c-1.152-1.134-2.591-2.451-3.983-3.724s-2.854-2.611-4.028-3.766a14.494,14.494,0,0,0-2.619-2.206,6.955,6.955,0,0,0-8.578,1.444,3.184,3.184,0,0,0-.832,2.6c1.152,2.994,3.485,5.389,5.619,7.339.568.519,1.146,1.029,1.725,1.539a41.2,41.2,0,0,1,5.4,5.393.828.828,0,0,1-.653,1.337Z" transform="translate(-3478.482 6870.014)"/><path class="b" d="M4506.62,1515.74a33.9,33.9,0,0,1-10.3-1.4.828.828,0,1,1,.5-1.578c5.586,1.767,11.419,1.374,16.565,1.027a7.689,7.689,0,0,0,3.006-.612,2.208,2.208,0,0,0,1.307-1.918.827.827,0,1,1,1.649-.132,3.828,3.828,0,0,1-2.2,3.521,9.117,9.117,0,0,1-3.654.792C4511.305,1515.584,4508.994,1515.74,4506.62,1515.74Z" transform="translate(-3496.898 6844.172)"/><path class="b" d="M4480.941,1526.828a29.43,29.43,0,0,1-3.909-.347,24.927,24.927,0,0,0-4.325-.326l-.154.007-.146-.049c-2.092-.705-3.588-2.293-5.036-3.829-.279-.3-.557-.591-.838-.877a28.127,28.127,0,0,0-9.97-6.544l-.266-.1-.148-.242a4.97,4.97,0,0,1-.789-3.087,3.408,3.408,0,0,1,1.97-2.788,4.194,4.194,0,0,1,3.177.154,10.329,10.329,0,0,1,5.529,5.022,5.791,5.791,0,0,1,.695,2.787,3.673,3.673,0,0,1-.7,2.058q.875.76,1.68,1.582c.288.294.574.6.86.9a11.892,11.892,0,0,0,4.221,3.347,27.113,27.113,0,0,1,4.456.346,16.591,16.591,0,0,0,5.857.111,16.872,16.872,0,0,0,3.683-1.485l4.344-2.157a6.313,6.313,0,0,0,1.537-.95c1.08-1.026,1.169-2.821,1.127-4.269a32.516,32.516,0,0,0-.405-4.252.827.827,0,1,1,1.633-.265,34.139,34.139,0,0,1,.426,4.469c.053,1.792-.087,4.04-1.641,5.516a7.641,7.641,0,0,1-1.94,1.232l-4.344,2.157a18.123,18.123,0,0,1-4.056,1.618A11.484,11.484,0,0,1,4480.941,1526.828Zm-23.518-13.41a29.48,29.48,0,0,1,7.33,4.192,2.078,2.078,0,0,0,.323-1.064,4.2,4.2,0,0,0-.525-1.993,8.649,8.649,0,0,0-4.633-4.209,2.715,2.715,0,0,0-1.95-.175,1.762,1.762,0,0,0-.963,1.44A3.189,3.189,0,0,0,4457.424,1513.418Z" transform="translate(-3473.209 6845.323)"/><path class="b" d="M4461.146,1504.166a.827.827,0,0,1-.822-.745,4.35,4.35,0,0,1,1.594-3.793,5.67,5.67,0,0,1,1.794-.928,9.208,9.208,0,0,1,5.155-.173.828.828,0,1,1-.416,1.6,7.534,7.534,0,0,0-4.218.141,4.091,4.091,0,0,0-1.281.65,2.717,2.717,0,0,0-.982,2.336.828.828,0,0,1-.741.906A.787.787,0,0,1,4461.146,1504.166Z" transform="translate(-3476.121 6851.279)"/><path class="b" d="M4472.5,1484.048a4.745,4.745,0,0,1-3.071-1.19.828.828,0,0,1,1.084-1.251,2.9,2.9,0,0,0,2.656.687,1.842,1.842,0,0,0,1.3-1.894,3.649,3.649,0,0,0-.763-1.413,17.17,17.17,0,0,0-5.449-5.238,1.218,1.218,0,0,0-.329-.136c-.2-.019-.642.3-.914.719a.827.827,0,1,1-1.388-.9,2.934,2.934,0,0,1,2.4-1.47,2.431,2.431,0,0,1,1.007.326,18.917,18.917,0,0,1,6,5.715,5.028,5.028,0,0,1,1.064,2.112,3.492,3.492,0,0,1-2.441,3.762A3.908,3.908,0,0,1,4472.5,1484.048Z" transform="translate(-3479.166 6866.688)"/><path class="b" d="M4465.289,1552.248c-.95,0-1.952-.037-3.017-.109a9.985,9.985,0,0,1-2.344-.368,10.8,10.8,0,0,1-3.466-2.131c-3.584-2.909-7.291-5.917-10.863-8.95l-.2-.171-.065-.256c-.461-1.818.326-4.121,2.233-4.654a4.588,4.588,0,0,1,3.371.68,17.23,17.23,0,0,1,6.135,5.746,4.69,4.69,0,0,1,.72,1.595,3.919,3.919,0,0,1-1.565,3.686l1.279,1.039a9.41,9.41,0,0,0,2.919,1.838,8.513,8.513,0,0,0,1.96.3,28.139,28.139,0,0,0,8.824-.547,13.956,13.956,0,0,0,7.315-4.288,3.249,3.249,0,0,0,.557-.846,4.085,4.085,0,0,0,.194-1.072l.313-3.276a.827.827,0,1,1,1.647.158l-.313,3.276a5.421,5.421,0,0,1-.3,1.519,4.734,4.734,0,0,1-.832,1.307,15.6,15.6,0,0,1-8.179,4.828A25.751,25.751,0,0,1,4465.289,1552.248Zm-18.4-12.635c2.636,2.234,5.346,4.457,8.025,6.636a2.521,2.521,0,0,0,1.255-2.292,3.152,3.152,0,0,0-.49-1.028,15.575,15.575,0,0,0-5.544-5.192,3.138,3.138,0,0,0-2.124-.534A2.129,2.129,0,0,0,4446.889,1539.613Z" transform="translate(-3467.27 6829.435)"/><path class="b" d="M4450.943,1531.325a.828.828,0,0,1-.827-.811,3.53,3.53,0,0,1,.728-2.08,7.047,7.047,0,0,1,8.287-2.6.828.828,0,1,1-.583,1.549,5.39,5.39,0,0,0-6.34,1.986,1.968,1.968,0,0,0-.436,1.107.827.827,0,0,1-.811.844Z" transform="translate(-3470.148 6835.363)"/><path class="b" d="M4419.93,1358.274a.827.827,0,0,1-.545-1.45,13.39,13.39,0,0,1,8.457-3.423.838.838,0,0,1,.846.809.828.828,0,0,1-.81.846,11.731,11.731,0,0,0-7.4,3.014A.825.825,0,0,1,4419.93,1358.274Z" transform="translate(-3451.965 6936.196)"/><path class="b" d="M4487.7,1590.4h0a4.985,4.985,0,0,1-4.856-3.762.828.828,0,0,1,1.624-.322,3.331,3.331,0,0,0,3.234,2.43h0a4.919,4.919,0,0,0,3.913-2.276,8.861,8.861,0,0,0,1.337-4.791,29.028,29.028,0,0,0-.486-5.008l-.052-.331c-.058-.378-.116-.721-.17-1.045a22.945,22.945,0,0,1-.374-3.207.827.827,0,0,1,.795-.859h.032a.828.828,0,0,1,.826.8,21.224,21.224,0,0,0,.353,3c.055.331.114.681.173,1.067l.051.33a30.324,30.324,0,0,1,.506,5.3,10.353,10.353,0,0,1-1.622,5.684A6.588,6.588,0,0,1,4487.7,1590.4Z" transform="translate(-3489.324 6808.486)"/><path class="b" d="M4458.9,1384.925a1.876,1.876,0,0,0,.471,2.229,1.323,1.323,0,0,0,1.234,0,2.445,2.445,0,0,0,1.752-1.124C4463.769,1383.372,4460.416,1381.23,4458.9,1384.925Z" transform="translate(-3475.209 6918.873)"/><path class="b" d="M4421.033,1306.752a1.875,1.875,0,0,0,.471,2.229,1.322,1.322,0,0,0,1.234,0,2.443,2.443,0,0,0,1.752-1.124C4425.9,1305.2,4422.55,1303.057,4421.033,1306.752Z" transform="translate(-3453.01 6964.705)"/><path class="b" d="M4479.078,1394.824c-1.049.875-2.107,2.308-1.612,3.313a.994.994,0,0,0,.3.3c.17.931,1.367.448,2.021-.257a2.188,2.188,0,0,0,.637-.677,1.819,1.819,0,0,0,.329-.605,2.022,2.022,0,0,0,.347-.627A1.274,1.274,0,0,0,4479.078,1394.824Z" transform="translate(-3486.109 6912.095)"/><path class="b" d="M4499.273,1409.34a1.877,1.877,0,0,0,.471,2.229,1.322,1.322,0,0,0,1.233,0,2.445,2.445,0,0,0,1.752-1.124C4504.144,1407.788,4500.791,1405.646,4499.273,1409.34Z" transform="translate(-3498.881 6904.558)"/><path class="b" d="M4435.2,1370.891a1.876,1.876,0,0,0,.47,2.229,1.324,1.324,0,0,0,1.234,0,2.446,2.446,0,0,0,1.752-1.124C4440.072,1369.338,4436.719,1367.2,4435.2,1370.891Z" transform="translate(-3461.316 6927.101)"/><path class="b" d="M4489.745,1427.443a1.875,1.875,0,0,0,.47,2.229,1.323,1.323,0,0,0,1.234,0,2.445,2.445,0,0,0,1.752-1.124C4494.614,1425.89,4491.261,1423.748,4489.745,1427.443Z" transform="translate(-3493.293 6893.945)"/><path class="b" d="M4429.1,1337.78a1.875,1.875,0,0,0,.471,2.229,1.323,1.323,0,0,0,1.233,0,2.446,2.446,0,0,0,1.753-1.125C4433.971,1336.227,4430.618,1334.085,4429.1,1337.78Z" transform="translate(-3457.74 6946.513)"/><path class="b" d="M4449.124,1351.524a1.875,1.875,0,0,0,.471,2.229,1.322,1.322,0,0,0,1.234,0,2.445,2.445,0,0,0,1.752-1.124C4453.993,1349.971,4450.641,1347.829,4449.124,1351.524Z" transform="translate(-3469.479 6938.455)"/><path class="b" d="M4440.735,1318.666a1.875,1.875,0,0,0,.471,2.229,1.322,1.322,0,0,0,1.233,0,2.445,2.445,0,0,0,1.752-1.124C4445.6,1317.113,4442.252,1314.971,4440.735,1318.666Z" transform="translate(-3464.561 6957.719)"/><path class="b" d="M4410.431,1271.314a1.875,1.875,0,0,0,.471,2.229,1.322,1.322,0,0,0,1.233,0,2.446,2.446,0,0,0,1.753-1.124C4415.3,1269.761,4411.948,1267.619,4410.431,1271.314Z" transform="translate(-3446.793 6985.481)"/><path class="b" d="M4405.661,1325.241a1.875,1.875,0,0,0,.47,2.229,1.325,1.325,0,0,0,1.234.005,2.445,2.445,0,0,0,1.752-1.125C4410.53,1323.688,4407.177,1321.546,4405.661,1325.241Z" transform="translate(-3443.996 6953.865)"/><path class="b" d="M4471.856,1363.635a1.877,1.877,0,0,0,.471,2.229,1.324,1.324,0,0,0,1.234,0,2.447,2.447,0,0,0,1.752-1.124C4476.727,1362.082,4473.374,1359.94,4471.856,1363.635Z" transform="translate(-3482.807 6931.355)"/><path class="b" d="M4519.97,1428.695c-1.049.875-2.107,2.308-1.612,3.313a1,1,0,0,0,.3.3c.169.931,1.367.448,2.021-.257a2.206,2.206,0,0,0,.637-.677,1.81,1.81,0,0,0,.328-.605,2.026,2.026,0,0,0,.347-.627A1.274,1.274,0,0,0,4519.97,1428.695Z" transform="translate(-3510.084 6892.237)"/><path class="b" d="M4436.658,1282.647c-1.049.875-2.107,2.308-1.611,3.312a.984.984,0,0,0,.3.3c.17.931,1.367.449,2.021-.257a2.191,2.191,0,0,0,.637-.677,1.827,1.827,0,0,0,.329-.605,2.019,2.019,0,0,0,.347-.626A1.274,1.274,0,0,0,4436.658,1282.647Z" transform="translate(-3461.24 6977.863)"/><path class="b" d="M4531.445,1454.348a1.876,1.876,0,0,0,.471,2.229,1.322,1.322,0,0,0,1.234,0,2.445,2.445,0,0,0,1.752-1.124C4536.315,1452.795,4532.962,1450.653,4531.445,1454.348Z" transform="translate(-3517.742 6878.171)"/><path class="b" d="M4401.41,1294.886a1.876,1.876,0,0,0,.471,2.229,1.323,1.323,0,0,0,1.233,0,2.445,2.445,0,0,0,1.752-1.124C4406.28,1293.333,4402.927,1291.191,4401.41,1294.886Z" transform="translate(-3441.504 6971.661)"/><g transform="translate(912.006 8248.394)"><path class="b" d="M4341.987,1254.307c-30.731,0-55.645,6.205-55.645,13.859,0,4.78,9.718,9,24.5,11.487-.034-.418-.043-.841-.043-1.266a31.775,31.775,0,0,1-.177-3.3,1.17,1.17,0,0,1,.341-.881c-.008-.813,0-1.625.056-2.437a1.508,1.508,0,0,1,.14-.542l.006-.051a9.759,9.759,0,0,1-.353-1.741,1.25,1.25,0,0,1,.516-1.009c-.078-.363-.158-.725-.236-1.088a1.34,1.34,0,0,1-.078-.277q-.062-.369-.125-.737a1.3,1.3,0,0,1,.045-.627,1.258,1.258,0,0,1-.081-.44c0-.164,0-.328,0-.491a1.2,1.2,0,0,1,1.209-1.2c.019-.009.035-.02.055-.027.358-.139.725-.257,1.095-.369a5.155,5.155,0,0,1,1.03-.582c.868-.258,1.79-.209,2.658-.477a22.189,22.189,0,0,1,2.684-1.014c.861-.15,1.745-.18,2.625-.34,2.053-.375,4.057.024,6.113.06,2.13.037,4.141-.858,6.257-.7,1.034.079,2.055.368,3.091.426.823.046,1.629-.072,2.449.05a22.084,22.084,0,0,1,4.979,1.636c3.058,1.239,6.588,1.835,8.5,4.881,1.151,1.835.487,3.918.494,5.931a39.145,39.145,0,0,0,.357,5.484,19.172,19.172,0,0,1,.595,3.114c24.431-1.463,42.587-6.94,42.587-13.475C4397.632,1260.512,4372.719,1254.307,4341.987,1254.307Z" transform="translate(-4286.136 -1254.1)"/><path class="b" d="M4354.54,1281.568l0-.225a6.986,6.986,0,0,0-.325-1.894,10.694,10.694,0,0,1-.267-1.185,38.939,38.939,0,0,1-.36-5.512c0-.554.047-1.117.094-1.661a6.364,6.364,0,0,0-.557-4.161c-1.47-2.341-3.982-3.219-6.412-4.068-.658-.23-1.34-.468-1.99-.731l-.562-.229a19.141,19.141,0,0,0-4.371-1.395,8.283,8.283,0,0,0-1.421-.046c-.328.009-.668.018-1.009,0a14.25,14.25,0,0,1-1.646-.22c-.476-.083-.968-.168-1.449-.205a12.258,12.258,0,0,0-3.255.334,14,14,0,0,1-2.99.362c-.666-.011-1.334-.061-1.98-.109a15.794,15.794,0,0,0-4.092.047c-.462.084-.928.133-1.379.18-.412.044-.838.089-1.248.16a6.229,6.229,0,0,0-1.522.547,9.164,9.164,0,0,1-1.135.462,7.816,7.816,0,0,1-1.385.252,7.583,7.583,0,0,0-1.274.226,3.385,3.385,0,0,0-.739.405c-.08.052-.161.1-.24.154l-.049.023c-.429.13-.772.245-1.081.364l-.122.041a.986.986,0,0,0-1.009.991v.492a1.055,1.055,0,0,0,.067.368l.026.068-.022.069a1.1,1.1,0,0,0-.039.529l.125.737a1.17,1.17,0,0,0,.066.236l.274,1.25-.106.079a1.039,1.039,0,0,0-.433.842,6.959,6.959,0,0,0,.257,1.333l.1.4-.029.151a1.308,1.308,0,0,0-.121.469c-.046.717-.064,1.486-.055,2.422V1274l-.061.061a.959.959,0,0,0-.28.73c.007.229.013.462.018.7a23.04,23.04,0,0,0,.156,2.582c0,.535.016.92.045,1.277l.022.265-.263-.044c-15.45-2.6-24.674-6.974-24.674-11.691,0-3.807,5.844-7.358,16.455-10,10.525-2.622,24.517-4.066,39.4-4.066s28.871,1.444,39.4,4.066c10.611,2.642,16.455,6.194,16.455,10,0,6.547-17.592,12.172-42.78,13.681Zm-15.624-21.531a6.4,6.4,0,0,1,.939.06,19.407,19.407,0,0,1,4.468,1.421l.559.228c.641.26,1.318.5,1.972.725,2.5.872,5.079,1.774,6.626,4.239a6.773,6.773,0,0,1,.618,4.417c-.046.535-.094,1.089-.092,1.624a38.5,38.5,0,0,0,.355,5.456,10.1,10.1,0,0,0,.258,1.138,8.337,8.337,0,0,1,.337,1.786c24.453-1.491,42.174-7.056,42.174-13.255,0-7.528-24.869-13.653-55.437-13.653s-55.437,6.124-55.437,13.653c0,4.472,8.991,8.668,24.069,11.239-.018-.3-.025-.621-.025-1.018a22.692,22.692,0,0,1-.158-2.6c-.006-.234-.011-.465-.018-.694a1.371,1.371,0,0,1,.339-.968c-.007-.909.012-1.664.057-2.37a1.714,1.714,0,0,1,.137-.569l-.074-.32a7.126,7.126,0,0,1-.271-1.431,1.442,1.442,0,0,1,.494-1.091l-.21-.964a1.3,1.3,0,0,1-.08-.287l-.125-.737a1.506,1.506,0,0,1,.032-.657,1.461,1.461,0,0,1-.07-.444v-.492a1.393,1.393,0,0,1,1.36-1.4l.036-.016c.312-.12.656-.237,1.083-.365l.21-.136a3.647,3.647,0,0,1,.847-.455,7.988,7.988,0,0,1,1.344-.24,7.416,7.416,0,0,0,1.313-.236,9.011,9.011,0,0,0,1.084-.442,6.628,6.628,0,0,1,1.625-.578c.423-.074.856-.12,1.275-.164.443-.047.9-.095,1.348-.177a16.429,16.429,0,0,1,4.2-.052c.641.048,1.3.1,1.956.108a14.227,14.227,0,0,0,2.9-.355,12.693,12.693,0,0,1,3.365-.341c.5.039,1,.126,1.488.21a13.906,13.906,0,0,0,1.6.216c.324.017.656.009.977,0C4338.546,1260.041,4338.73,1260.036,4338.916,1260.036Z" transform="translate(-4285.843 -1253.807)"/></g><path class="b" d="M4436.8,1584.073c-1.132-.5.4,9.542-1.715,13.742a67.346,67.346,0,0,0,12.787.048c2.256-.139,5.143.339,6.5-2.152.41-.655,1.479-3.256.159-2.59-1.875.823-6.336.475-8.292.973,3.363-1.068,2.439-1.172,1.791-4.053a4.693,4.693,0,0,1-2.589.393,1.519,1.519,0,0,0,.449-2.429c1.508-.207,5.558-.9,5-1.267-1.053-.705-5.335.371-6.57-.358-.05-2.63,4.3-.039,7.643-2.214-4.693-.276-9.187.335-10.35.266-1.7-.1-4.144-.292-4.8-.358Z" transform="translate(-3461.334 6800.967)"/></g></svg>