<svg xmlns="http://www.w3.org/2000/svg" width="144.176" height="141.817" viewBox="0 0 144.176 141.817"><defs><style>.a{fill:#340174;}</style></defs><g transform="translate(0 0)"><path class="a" d="M61.406,546.976q-2.923-1.059-5.186-1.7l-10.814-3.064q-2.263-.64-5.307-1.273l1.6-5.646q1.44-5.086,4.972-7.194t8.753-.627a12.432,12.432,0,0,1,5.386,2.921,8.941,8.941,0,0,1,2.592,4.763,13.084,13.084,0,0,1-.4,6.174Zm1.15-5.687a7.823,7.823,0,0,0,0-4.53,8.032,8.032,0,0,0-2.685-3.825,14.3,14.3,0,0,0-5.267-2.585,14.594,14.594,0,0,0-5.959-.6,7.71,7.71,0,0,0-4.222,1.854,8.084,8.084,0,0,0-2.324,3.887l-.777,2.743,20.454,5.8Z" transform="translate(-40.099 -478.757)"/><path class="a" d="M68.07,525.862a11.064,11.064,0,0,1-6.011.778,12.012,12.012,0,0,1-9.25-7.645,11.216,11.216,0,0,1-.368-6.05,14.185,14.185,0,0,1,8.077-9.772,11.639,11.639,0,0,1,15.271,6.855,11.167,11.167,0,0,1,.359,6.062,14.308,14.308,0,0,1-8.077,9.772Zm6.81-9.042a10.025,10.025,0,0,0-1.07-5.158,13.812,13.812,0,0,0-8.5-7.027,9.995,9.995,0,0,0-5.278-.088,8.718,8.718,0,0,0-6.322,7.65,10.055,10.055,0,0,0,1.08,5.147,13.835,13.835,0,0,0,8.513,7.036,10.056,10.056,0,0,0,5.258.09,8.717,8.717,0,0,0,6.322-7.65Z" transform="translate(-39.317 -480.347)"/><path class="a" d="M94.289,505.046a2.444,2.444,0,0,0,.21.7,2.286,2.286,0,0,0,.459.64l-2.948,1.405L84.481,499.2l1.664,9.726a4.812,4.812,0,0,0,.2.673,2.686,2.686,0,0,0,.5.654l-2.948,1.405L70.735,496.681a14.419,14.419,0,0,0-1.1-1.177q-.468-.434-1.2-1.006l3.123-1.489a7.9,7.9,0,0,0,.643,1.058c.2.264.415.527.654.792s.406.456.5.573l12.5,14.25-1.873-11.067-5.1-5.816q-.655-.73-1.124-1.166t-1.2-1.006l3.124-1.49a7.734,7.734,0,0,0,.642,1.058q.3.4.654.792c.238.265.406.456.5.573l1.6,1.813-.437-2.522c-.021-.132-.043-.26-.06-.384s-.039-.232-.063-.324q-.077-.484-.192-1.012a6.067,6.067,0,0,0-.351-1.09l.75-.358a13.165,13.165,0,0,0,.2,2.357l.1.6.581,3.341,10.365,11.833-3.213-18.831c-.022-.174-.064-.445-.128-.813s-.133-.708-.21-1.02a10.106,10.106,0,0,0-.3-.989l.725-.345a13.051,13.051,0,0,0,.2,2.355l.1.6Z" transform="translate(-38.267 -481.541)"/><path class="a" d="M115.2,498.363q.109,2.351.473,5.437l-3.125.145L98.611,483.5l.721,15.6q.109,2.349.472,5.436l-.828.039q.078-3.108-.031-5.459l-.518-11.226q-.109-2.351-.473-5.437l3.125-.145,13.941,20.445-.721-15.6q-.073-1.605-.166-2.695t-.307-2.744l.829-.038q-.078,3.108.031,5.458Z" transform="translate(-36.358 -481.679)"/><path class="a" d="M115.906,504.225q.607-1.645.94-2.686t.724-2.515l2.878-10.864q.6-2.274,1.182-5.329l3.05.808q-1.009,2.94-1.61,5.215l-4.161,15.708,2.248.594a31.629,31.629,0,0,0,3.813.8,25.341,25.341,0,0,0,3.922.165l-1.158,1.239Z" transform="translate(-35.197 -481.604)"/><path class="a" d="M131.66,507.97a11.07,11.07,0,0,1-1.384-5.9,12.015,12.015,0,0,1,6.665-9.979,11.2,11.2,0,0,1,5.981-.982,14.186,14.186,0,0,1,10.543,7.043,11.637,11.637,0,0,1-5.269,15.887,11.166,11.166,0,0,1-5.993.973,14.309,14.309,0,0,1-10.543-7.041Zm9.688,5.855a10.029,10.029,0,0,0,5.022-1.59,13.819,13.819,0,0,0,6.127-9.173,10.008,10.008,0,0,0-.448-5.258,8.721,8.721,0,0,0-8.253-5.513,10.057,10.057,0,0,0-5.01,1.6,13.85,13.85,0,0,0-6.135,9.185,10.064,10.064,0,0,0,.445,5.24,8.718,8.718,0,0,0,8.252,5.512Z" transform="translate(-34.268 -481.073)"/><path class="a" d="M155.168,527.76q-.605.77-.953,1.31c-.233.358-.493.81-.784,1.356l-2.008-2.817a7.943,7.943,0,0,0,.929-.817q.339-.361.668-.781c.219-.281.377-.479.477-.6l3.311-4.129-4.308-6.04-5.127,1.82c-.167.052-.427.141-.779.267s-.674.255-.967.383-.6.287-.923.471l-.465-.653a13.013,13.013,0,0,0,2.285-.61l.57-.2,17.479-6.242a5.045,5.045,0,0,0,.627-.312,2.673,2.673,0,0,0,.558-.6l1.9,2.66Zm10.192-17.127-12.434,4.447,4.179,5.86Z" transform="translate(-33.365 -479.875)"/><path class="a" d="M153.349,532.361q3.03-.695,5.28-1.383l10.747-3.29q2.249-.687,5.15-1.807l1.716,5.611q1.548,5.056-.277,8.741t-7.013,5.273a12.45,12.45,0,0,1-6.111.465,8.94,8.94,0,0,1-4.76-2.6,13.091,13.091,0,0,1-3.014-5.4Zm2.117,5.4a7.818,7.818,0,0,0,2.454,3.808,8.017,8.017,0,0,0,4.33,1.758,14.32,14.32,0,0,0,5.827-.682,14.59,14.59,0,0,0,5.33-2.732,7.71,7.71,0,0,0,2.542-3.847,8.087,8.087,0,0,0-.154-4.526l-.835-2.727-20.329,6.221Z" transform="translate(-32.775 -478.821)"/></g><g transform="translate(7.041 76.267)"><path class="a" d="M46.959,569.366a11.292,11.292,0,0,1,3.686-5.455l1.845,1.631a11.394,11.394,0,0,0-3.287,2.7,7.468,7.468,0,0,0-1.61,3.306,5.809,5.809,0,0,0,.349,3.408,4.712,4.712,0,0,0,2.233,2.564,3.907,3.907,0,0,0,3.336-.05,3.584,3.584,0,0,0,1.628-1.349,9.253,9.253,0,0,0,1.073-2.29q.444-1.349,1.114-4l.324-1.244q.707-2.843,1.165-4.2a7.361,7.361,0,0,1,1.164-2.252,4.714,4.714,0,0,1,1.936-1.4,3.9,3.9,0,0,1,3.619.162,6.4,6.4,0,0,1,2.619,3.244,7.454,7.454,0,0,1,.481,4.446,10.935,10.935,0,0,1-2.305,4.522l-1.615-1.727a8.681,8.681,0,0,0,2.965-3.148,4.587,4.587,0,0,0,.012-4.05,4.251,4.251,0,0,0-1.833-2.252,2.719,2.719,0,0,0-2.433-.085,3.215,3.215,0,0,0-1.4,1.063,5.949,5.949,0,0,0-.839,1.7q-.334,1.006-.844,3.167l-.226.9q-.874,3.6-1.405,5.242a10.152,10.152,0,0,1-1.4,2.844,5.419,5.419,0,0,1-2.374,1.825,5.313,5.313,0,0,1-3.118.394,5.163,5.163,0,0,1-2.567-1.348,7.635,7.635,0,0,1-1.779-2.662A8.786,8.786,0,0,1,46.959,569.366Z" transform="translate(-46.712 -552.858)"/><path class="a" d="M55.9,588.679q2.566-1.754,4.411-3.214L73.041,575.37l-.207-.261a15.4,15.4,0,0,0-4.427-3.8l.458-1.919L79.6,582.926l-1.972.009a15.423,15.423,0,0,0-2.693-5.177l-.205-.261L61.993,587.589q-1.845,1.463-4.136,3.561Z" transform="translate(-46.118 -552.274)"/><path class="a" d="M76.223,603.244q-.353.915-.528,1.531t-.352,1.527L72.6,604.2a7.965,7.965,0,0,0,.651-1.054q.219-.442.41-.942c.128-.332.22-.567.282-.708l1.959-4.917-5.885-4.517L65.643,595.3q-.217.145-.666.482t-.812.649a10.059,10.059,0,0,0-.745.72l-.637-.488a13.161,13.161,0,0,0,2.008-1.252l.485-.36,14.888-11.079a4.9,4.9,0,0,0,.51-.482,2.639,2.639,0,0,0,.357-.738l2.591,1.989Zm4.739-19.358-10.59,7.887,5.71,4.383Z" transform="translate(-45.673 -551.41)"/><path class="a" d="M81.5,609.523q1.442-2.753,2.385-4.909l6.5-14.892-.3-.134a15.436,15.436,0,0,0-5.694-1.278l-.5-1.907,15.832,6.909-1.736.934a15.429,15.429,0,0,0-4.809-3.307l-.3-.133-6.5,14.893q-.942,2.156-1.978,5.087Z" transform="translate(-44.463 -551.174)"/><path class="a" d="M95.7,614.449q.366-1.627.538-2.7t.369-2.686l1.36-11.157q.2-1.623.287-2.7t.125-2.746l12.971,1.58-1.425,1.389a14.675,14.675,0,0,0-3.139-1.247,21.333,21.333,0,0,0-2.993-.617l-2.5-.306-1.179,9.673,1.758.215q1.456.177,2.63.277t2.9.118l-.12.989q-1.68-.4-2.843-.583t-2.619-.361l-1.759-.215L98.72,614.371l3.077.376a31.838,31.838,0,0,0,3.886.264,25.314,25.314,0,0,0,3.908-.375l-.978,1.386Z" transform="translate(-43.545 -550.782)"/><path class="a" d="M126.367,614.571,111.9,596.25l3.715,14.822q.39,1.559.7,2.608t.844,2.628l-.859.215q-.538-3.06-1.11-5.344l-2.732-10.9q-.572-2.284-1.54-5.236l2.953-.74,13.027,16.34,3.378-20.452,2.766-.693q.268,1.645.5,2.715t.615,2.629l2.732,10.9q.39,1.559.7,2.607t.844,2.628l-3.061.768q-.471-2.678-1.138-5.337l-3.734-14.9-3.64,22.944Z" transform="translate(-42.561 -550.974)"/><path class="a" d="M144.586,607.052q-.819-1.455-1.406-2.36t-1.526-2.243l-6.465-9.195q-.939-1.335-1.594-2.2t-1.747-2.122l10.688-7.514-.127,1.985a14.664,14.664,0,0,0-3.166,1.176,21.713,21.713,0,0,0-2.634,1.547l-2.06,1.45,5.6,7.97,1.45-1.019q1.2-.845,2.139-1.554t2.23-1.857l.573.816q-1.514.83-2.5,1.47t-2.187,1.488l-1.449,1.018,6.369,9.058,2.536-1.784a31.506,31.506,0,0,0,3.062-2.406,25.146,25.146,0,0,0,2.651-2.9l.2,1.684Z" transform="translate(-41.207 -551.496)"/><path class="a" d="M165.92,578.557q1.886,1.407,4.5,3.082l-1.871,2.508-24.647-2.188,12.514,9.334q1.886,1.405,4.5,3.082l-.5.665q-2.352-2.03-4.24-3.438l-9.008-6.719q-1.886-1.407-4.5-3.082l1.872-2.507,24.647,2.188-12.515-9.334q-1.286-.961-2.188-1.581t-2.316-1.5l.5-.666q2.352,2.031,4.237,3.438Z" transform="translate(-40.507 -552.338)"/><path class="a" d="M175.18,569.83q-2.883-1.161-5.122-1.885l-15.465-4.985-.1.316a15.442,15.442,0,0,0-.7,5.793l-1.849.685,5.3-16.441,1.1,1.634a15.445,15.445,0,0,0-2.812,5.115l-.1.315,15.465,4.987q2.239.72,5.257,1.462Z" transform="translate(-39.908 -553.314)"/></g></svg>