<svg xmlns="http://www.w3.org/2000/svg" width="147.868" height="146.761" viewBox="0 0 147.868 146.761"><defs><style>.a{fill:#340174;}</style></defs><g transform="translate(0 0)"><g transform="translate(8.339 96.075)"><path class="a" d="M278.81,641.174q-.586.787-.919,1.332t-.748,1.376l-2.078-2.765a7.988,7.988,0,0,0,.909-.84q.329-.367.647-.8t.461-.607l3.2-4.21-4.456-5.926-5.078,1.948q-.249.083-.772.286t-.957.408a9.849,9.849,0,0,0-.91.494l-.482-.642a12.949,12.949,0,0,0,2.268-.666l.565-.217,17.306-6.678a4.9,4.9,0,0,0,.619-.328,2.657,2.657,0,0,0,.543-.615l1.961,2.609Zm9.751-17.372-12.311,4.758,4.323,5.75Z" transform="translate(-267.631 -616.955)"/><path class="a" d="M289.956,630.169a14.084,14.084,0,0,0,.631-1.481q.208-.6.433-1.5l2.626,2.25a8,8,0,0,0-.707,1.016q-.241.431-.459.918c-.145.326-.251.556-.319.692l-7.951,17.2,15.9-10.569c.112-.074.221-.145.328-.212s.195-.129.269-.187q.412-.268.848-.585a6.217,6.217,0,0,0,.854-.763l.63.54a13.028,13.028,0,0,0-2.07,1.142l-.5.333-15.454,10.26a5.02,5.02,0,0,0-.534.454,2.653,2.653,0,0,0-.4.717l-2.48-2.124Z" transform="translate(-266.734 -616.669)"/><path class="a" d="M303.066,658.277q-.2.961-.268,1.6c-.049.425-.079.945-.095,1.564l-3.054-1.623a8.01,8.01,0,0,0,.467-1.145c.095-.316.177-.648.248-1s.123-.6.161-.745l1.116-5.171-6.549-3.478-3.773,3.917c-.127.121-.319.316-.577.586s-.491.529-.694.775a9.991,9.991,0,0,0-.615.833l-.709-.376a13.023,13.023,0,0,0,1.772-1.567l.419-.435,12.841-13.386a5.107,5.107,0,0,0,.422-.56,2.688,2.688,0,0,0,.229-.786l2.884,1.531Zm1.464-19.867-9.133,9.53,6.353,3.373Z" transform="translate(-266.277 -616.021)"/><path class="a" d="M306.506,662.536q1.1-2.9,1.779-5.157l3.228-10.76q.675-2.251,1.354-5.284l3.022.907q-1.1,2.9-1.779,5.157l-3.228,10.76q-.675,2.252-1.355,5.284Z" transform="translate(-265.136 -615.761)"/><path class="a" d="M314.444,664.866q.361-1.714.538-2.793t.347-2.592l1.259-11.162q.263-2.337.391-5.441l3.135.353q-.568,3.054-.831,5.391l-1.82,16.139,2.31.261a31.507,31.507,0,0,0,3.886.229,25.454,25.454,0,0,0,3.9-.409l-.965,1.394Z" transform="translate(-264.627 -615.662)"/><path class="a" d="M345.626,661.152q.42.886.743,1.438t.862,1.308l-3.417.533a7.876,7.876,0,0,0-.313-1.2q-.171-.463-.4-.946c-.153-.321-.259-.551-.318-.693l-2.206-4.808-7.327,1.143-.67,5.4c-.029.172-.066.445-.111.815s-.076.717-.09,1.037a9.992,9.992,0,0,0,.007,1.035l-.793.123a12.988,12.988,0,0,0,.479-2.316l.074-.6L334.4,645.01a4.939,4.939,0,0,0,0-.7,2.672,2.672,0,0,0-.287-.768l3.227-.5Zm-10.737-16.779-1.6,13.1,7.108-1.109Z" transform="translate(-263.526 -615.651)"/><path class="a" d="M352.546,662.247q-1.135-2.891-2.148-5.014l-4.838-10.138q-1.012-2.123-2.547-4.824l5.569-2.658a12.484,12.484,0,0,1,5.317-1.418q2.319.013,3.571,2.634a4.284,4.284,0,0,1,.322,3.311,6.189,6.189,0,0,1-2.616,2.934,8.987,8.987,0,0,1,4.915-.107,5.536,5.536,0,0,1,3.493,3.208,5.065,5.065,0,0,1-.117,5.282,12.067,12.067,0,0,1-5.029,3.978Zm-.511-13.92a6.059,6.059,0,0,0,3.195-2.75,4.216,4.216,0,0,0-.307-3.533,3.722,3.722,0,0,0-3.013-2.394,7.426,7.426,0,0,0-3.986.768l-2.073.989,3.837,8.041Zm5.289,11.15a7.872,7.872,0,0,0,3.725-3.311,5.031,5.031,0,0,0-.172-4.731,6.106,6.106,0,0,0-2.52-2.905,5.418,5.418,0,0,0-3.064-.669,8.193,8.193,0,0,0-2.817.747l-2.6,1.24L355,660.584Z" transform="translate(-262.794 -615.962)"/><path class="a" d="M370.488,652.387q-1.018-1.424-1.693-2.286t-1.673-2.01l-7.368-8.479q-1.542-1.775-3.742-3.969l2.38-2.069q1.866,2.485,3.409,4.26l10.651,12.259,1.755-1.524a31.6,31.6,0,0,0,2.8-2.706,25.258,25.258,0,0,0,2.339-3.15l.375,1.654Z" transform="translate(-261.959 -616.259)"/><path class="a" d="M383.453,640.615q-1.274-1.079-2.139-1.725t-2.209-1.573l-9.251-6.371q-1.346-.926-2.257-1.5t-2.373-1.383l7.408-10.756.569,1.9a14.657,14.657,0,0,0-2.558,2.2,21.432,21.432,0,0,0-1.931,2.365l-1.428,2.074,8.021,5.524,1-1.459q.832-1.207,1.465-2.2t1.446-2.515l.82.565q-1.133,1.3-1.835,2.248t-1.532,2.153l-1,1.458,9.115,6.278,1.758-2.552a31.629,31.629,0,0,0,2.034-3.319,25.356,25.356,0,0,0,1.479-3.634l.775,1.508Z" transform="translate(-261.368 -617.303)"/></g><g transform="translate(0 0)"><path class="a" d="M281.658,606.467a11.28,11.28,0,0,1-5.037,4.235l-1.327-2.074a11.34,11.34,0,0,0,3.9-1.693,7.48,7.48,0,0,0,2.454-2.737,5.8,5.8,0,0,0,.6-3.369,4.716,4.716,0,0,0-1.445-3.078,3.9,3.9,0,0,0-3.219-.865,3.6,3.6,0,0,0-1.936.851,9.261,9.261,0,0,0-1.658,1.906q-.795,1.18-2.164,3.539l-.652,1.106q-1.459,2.538-2.269,3.718a7.336,7.336,0,0,1-1.736,1.845,4.7,4.7,0,0,1-2.244.818,3.894,3.894,0,0,1-3.434-1.147,6.4,6.4,0,0,1-1.63-3.834,7.454,7.454,0,0,1,.756-4.406,10.937,10.937,0,0,1,3.453-3.717l1.081,2.1a8.681,8.681,0,0,0-3.713,2.213,4.589,4.589,0,0,0-1.121,3.892,4.255,4.255,0,0,0,1.145,2.666,2.716,2.716,0,0,0,2.316.747,3.214,3.214,0,0,0,1.639-.636,6,6,0,0,0,1.272-1.4q.6-.876,1.678-2.813l.463-.807q1.826-3.221,2.787-4.656a10.183,10.183,0,0,1,2.123-2.35,5.407,5.407,0,0,1,2.783-1.1,5.288,5.288,0,0,1,3.1.475,5.148,5.148,0,0,1,2.1,2,7.641,7.641,0,0,1,.982,3.048A8.788,8.788,0,0,1,281.658,606.467Z" transform="translate(-259.795 -522.636)"/><path class="a" d="M281.071,591.093a10.108,10.108,0,0,1-5,2.751,13.775,13.775,0,0,1-6.226-.069,11.893,11.893,0,0,1-5.415-2.708,10.336,10.336,0,0,1-3.05-4.738,10.881,10.881,0,0,1-.179-5.7q1.346-5.909,7.889-7.484l.115,2.864a10.424,10.424,0,0,0-4.989,1.163,5.168,5.168,0,0,0-2.583,3.555,6.5,6.5,0,0,0,.468,4.363,9.153,9.153,0,0,0,3.173,3.573,14.493,14.493,0,0,0,5.07,2.161,16.051,16.051,0,0,0,5.743.328,9,9,0,0,0,4.594-1.92,7.557,7.557,0,0,0,2.533-4.332,7.747,7.747,0,0,0-1.015-6.2,13.476,13.476,0,0,0-5.692-4.6l.086-.378a14.418,14.418,0,0,1,6.238,5.009,8.832,8.832,0,0,1,1.039,7.033A10.752,10.752,0,0,1,281.071,591.093Z" transform="translate(-259.723 -524.062)"/><path class="a" d="M290.266,560.682q1.327.9,2.254,1.485t2.375,1.4l-1.775,2.607q-2.436-1.927-4.38-3.251l-4.46-3.038-5.7,8.371,4.459,3.036q1.944,1.325,4.629,2.886l-1.775,2.607q-2.436-1.928-4.38-3.251l-9.284-6.324q-1.944-1.325-4.63-2.886l1.776-2.607q2.436,1.928,4.38,3.251l4.459,3.038,5.7-8.37-4.459-3.037q-1.944-1.323-4.63-2.886l1.776-2.606q1.293,1.049,2.174,1.7t2.206,1.553Z" transform="translate(-259.294 -525.476)"/><path class="a" d="M298.209,559.385a11.069,11.069,0,0,1-5.962-1.083,12.011,12.011,0,0,1-6.491-10.085,11.2,11.2,0,0,1,1.484-5.875,14.186,14.186,0,0,1,10.657-6.857,11.633,11.633,0,0,1,12.463,11.162,11.161,11.161,0,0,1-1.5,5.881,14.3,14.3,0,0,1-10.656,6.859Zm9.227-6.548a10.012,10.012,0,0,0,.545-5.237,13.813,13.813,0,0,0-5.967-9.271,10,10,0,0,0-5-1.686,8.711,8.711,0,0,0-8.341,5.369,10.054,10.054,0,0,0-.533,5.228,13.835,13.835,0,0,0,5.974,9.284,10.059,10.059,0,0,0,4.981,1.681,8.716,8.716,0,0,0,8.341-5.369Z" transform="translate(-258.129 -526.482)"/><path class="a" d="M313.969,551.269q-.191-1.742-.359-2.822t-.477-2.572l-2.281-11q-.476-2.3-1.323-5.293l3.088-.64q.412,3.078.89,5.382l3.3,15.9,2.276-.471a31.46,31.46,0,0,0,3.764-.993,25.177,25.177,0,0,0,3.581-1.6l-.482,1.626Z" transform="translate(-256.603 -526.899)"/><path class="a" d="M340.572,546.826q.2.959.388,1.571t.534,1.473l-3.447-.276a7.983,7.983,0,0,0-.027-1.238q-.057-.49-.169-1.013c-.073-.348-.123-.6-.148-.747l-1.028-5.19-7.392-.592-1.906,5.094c-.069.16-.168.416-.3.766s-.239.68-.329.988a9.907,9.907,0,0,0-.233,1.008l-.8-.064a13,13,0,0,0,1-2.14l.212-.566,6.472-17.385a5.187,5.187,0,0,0,.165-.681,2.715,2.715,0,0,0-.1-.812l3.254.261Zm-6.543-18.816-4.6,12.371,7.17.575Z" transform="translate(-255.564 -527.022)"/><path class="a" d="M355.1,553.247a4.248,4.248,0,0,0,.885,2,4.956,4.956,0,0,0,1.844,1.278l-.164.381a13.052,13.052,0,0,1-3.345-1.957,5.5,5.5,0,0,1-1.659-2.4,8.85,8.85,0,0,1-.33-3.459,11.669,11.669,0,0,0-.2-3.626,4.525,4.525,0,0,0-1.161-2.159,7.244,7.244,0,0,0-2.2-1.389l-.915-.395-1.9,4.394q-.932,2.16-1.958,5.092l-2.9-1.251q1.432-2.757,2.366-4.915l4.454-10.313q.932-2.16,1.958-5.091l4.7,2.029a14.485,14.485,0,0,1,5.651,3.872,4.786,4.786,0,0,1,.448,5.242,4.857,4.857,0,0,1-3.491,3.163,10.608,10.608,0,0,1-5.526-.638,7.36,7.36,0,0,1,2.508,2.741,8.5,8.5,0,0,1,.778,4.163A14.507,14.507,0,0,0,355.1,553.247Zm-7.068-12.14,1.98.856a7.939,7.939,0,0,0,4.737.688q2.144-.428,3.34-3.2t.038-4.625a7.94,7.94,0,0,0-3.748-2.974L352.4,531Z" transform="translate(-254.577 -526.867)"/><path class="a" d="M357.994,556.669a11.286,11.286,0,0,1,.713-6.541l2.392.581a11.327,11.327,0,0,0-1.645,3.917,7.465,7.465,0,0,0,.118,3.674,5.8,5.8,0,0,0,1.9,2.848,4.71,4.71,0,0,0,3.17,1.225,3.9,3.9,0,0,0,2.925-1.6,3.587,3.587,0,0,0,.809-1.953,9.2,9.2,0,0,0-.118-2.523q-.241-1.4-.882-4.055l-.295-1.249q-.7-2.843-.929-4.256a7.355,7.355,0,0,1-.022-2.533,4.708,4.708,0,0,1,1.057-2.142,3.9,3.9,0,0,1,3.275-1.546,6.4,6.4,0,0,1,3.829,1.645,7.441,7.441,0,0,1,2.5,3.706,10.942,10.942,0,0,1,.075,5.073l-2.234-.774a8.68,8.68,0,0,0,1.15-4.165,4.583,4.583,0,0,0-1.878-3.586,4.256,4.256,0,0,0-2.671-1.135,2.72,2.72,0,0,0-2.19,1.061,3.224,3.224,0,0,0-.745,1.592,6.032,6.032,0,0,0,.05,1.892q.177,1.044.732,3.194l.222.9q.907,3.59,1.2,5.291a10.116,10.116,0,0,1,.09,3.164,5.4,5.4,0,0,1-1.247,2.722,5.291,5.291,0,0,1-2.572,1.8,5.16,5.16,0,0,1-2.9.006,7.631,7.631,0,0,1-2.816-1.524A8.8,8.8,0,0,1,357.994,556.669Z" transform="translate(-253.507 -526.156)"/><path class="a" d="M379.3,575.1q-1.355.859-2.256,1.479t-2.228,1.626l-1.69-2.664q2.736-1.473,4.723-2.732l4.556-2.89-5.424-8.552-4.556,2.89q-1.986,1.259-4.484,3.105l-1.689-2.664q2.734-1.472,4.721-2.732l9.487-6.017q1.986-1.258,4.484-3.105l1.69,2.664q-2.738,1.472-4.722,2.732l-4.557,2.889,5.423,8.553,4.557-2.889q1.986-1.261,4.484-3.106l1.689,2.664q-1.477.771-2.421,1.322t-2.3,1.41Z" transform="translate(-252.963 -525.365)"/><path class="a" d="M374.432,578.9q2.991-.841,5.2-1.638l10.57-3.8q2.212-.795,5.055-2.053l1.067,2.968q-2.991.84-5.2,1.637l-10.57,3.8q-2.214.8-5.054,2.054Z" transform="translate(-252.438 -524.174)"/><path class="a" d="M376.34,583q3.1-.233,5.424-.577l11.113-1.639q2.327-.342,5.36-1.014l.747,5.064a14.486,14.486,0,0,1-.319,6.843,5.559,5.559,0,0,1-9.17,1.353,14.49,14.49,0,0,1-2.281-6.459l-.319-2.162-4.736.7q-2.327.343-5.36,1.014Zm11.309,3.478a7.929,7.929,0,0,0,1.906,4.39q1.492,1.6,4.477,1.158t3.953-2.4a7.942,7.942,0,0,0,.557-4.754l-.314-2.135-10.895,1.607Z" transform="translate(-252.316 -523.637)"/><path class="a" d="M379.086,598.916a11.29,11.29,0,0,1,5.894-2.925l.8,2.328a11.352,11.352,0,0,0-4.187.725,7.478,7.478,0,0,0-3.031,2.081,5.8,5.8,0,0,0-1.375,3.134,4.707,4.707,0,0,0,.677,3.331,3.9,3.9,0,0,0,2.924,1.6,3.6,3.6,0,0,0,2.082-.371,9.261,9.261,0,0,0,2.061-1.46q1.052-.958,2.939-2.928l.894-.922q2.018-2.12,3.083-3.077a7.35,7.35,0,0,1,2.122-1.383,4.719,4.719,0,0,1,2.375-.265,3.9,3.9,0,0,1,3.066,1.925,6.4,6.4,0,0,1,.678,4.112,7.453,7.453,0,0,1-1.773,4.1,10.95,10.95,0,0,1-4.233,2.8l-.553-2.3a8.669,8.669,0,0,0,4.129-1.275,4.586,4.586,0,0,0,2.008-3.516,4.253,4.253,0,0,0-.483-2.862,2.723,2.723,0,0,0-2.074-1.273,3.231,3.231,0,0,0-1.743.231,6.019,6.019,0,0,0-1.565,1.062q-.785.712-2.3,2.338l-.641.674q-2.535,2.7-3.808,3.866a10.137,10.137,0,0,1-2.617,1.783,5.409,5.409,0,0,1-2.965.415,5.29,5.29,0,0,1-2.905-1.194A5.156,5.156,0,0,1,377,607.233a7.631,7.631,0,0,1-.234-3.193A8.794,8.794,0,0,1,379.086,598.916Z" transform="translate(-252.293 -522.596)"/></g></g></svg>