<svg xmlns="http://www.w3.org/2000/svg" width="138.605" height="137.364" viewBox="0 0 138.605 137.364">
  <g id="Group_4822" data-name="Group 4822" transform="translate(-205.861 -291.37)">
    <g id="Group_4820" data-name="Group 4820">
      <g id="Group_4819" data-name="Group 4819">
        <path id="Path_47185" data-name="Path 47185" d="M216.6,390.136a4,4,0,0,0-.687,1.933,4.635,4.635,0,0,0,.429,2.064l-.359.153a12.306,12.306,0,0,1-1.013-3.5,5.187,5.187,0,0,1,.425-2.712,8.366,8.366,0,0,1,2.013-2.571,10.934,10.934,0,0,0,2.213-2.6,4.25,4.25,0,0,0,.606-2.223,6.8,6.8,0,0,0-.6-2.371l-.367-.861-4.137,1.766q-2.032.87-4.629,2.2l-1.164-2.725q2.76-.953,4.793-1.82l9.707-4.146q2.034-.867,4.63-2.2l1.889,4.424a13.616,13.616,0,0,1,1.344,6.3,4.492,4.492,0,0,1-3.086,3.861,4.56,4.56,0,0,1-4.426-.1,9.986,9.986,0,0,1-3.353-4.011,6.9,6.9,0,0,1-.063,3.491,7.987,7.987,0,0,1-2.164,3.341A13.679,13.679,0,0,0,216.6,390.136Zm3.039-12.846.8,1.864a7.462,7.462,0,0,0,2.781,3.535,5.589,5.589,0,0,0,7.365-3.144,7.471,7.471,0,0,0-.63-4.454l-.795-1.865Z" fill="#340174"/>
        <path id="Path_47186" data-name="Path 47186" d="M219.27,398.863q1.3-.881,2.1-1.5t1.981-1.6l8.1-6.766q1.176-.981,1.931-1.663t1.85-1.8l7.866,9.421-1.867.034a13.743,13.743,0,0,0-1.349-2.871,20.038,20.038,0,0,0-1.652-2.345l-1.517-1.817-7.025,5.865,1.066,1.278q.884,1.056,1.622,1.881t1.911,1.945l-.718.6q-.9-1.355-1.573-2.228t-1.561-1.93l-1.066-1.277-7.984,6.665,1.866,2.235a29.853,29.853,0,0,0,2.491,2.679,23.725,23.725,0,0,0,2.917,2.256l-1.562.321Z" fill="#340174"/>
        <path id="Path_47187" data-name="Path 47187" d="M244.562,417.817q-.276.881-.4,1.467c-.085.392-.164.875-.235,1.454l-2.7-1.808a7.52,7.52,0,0,0,.547-1.026c.117-.285.225-.589.325-.908s.172-.547.221-.681l1.534-4.729-5.792-3.873-3.9,3.3q-.2.152-.6.494t-.722.659c-.214.211-.432.452-.654.72l-.626-.419a12.369,12.369,0,0,0,1.805-1.3l.432-.366,13.277-11.3a4.947,4.947,0,0,0,.447-.482,2.537,2.537,0,0,0,.29-.714l2.55,1.7Zm3.256-18.434-9.443,8.042,5.618,3.757Z" fill="#340174"/>
        <path id="Path_47188" data-name="Path 47188" d="M252.782,423.393a9.5,9.5,0,0,1-2.311-4.836,12.951,12.951,0,0,1,.4-5.838,11.178,11.178,0,0,1,2.832-4.932,9.721,9.721,0,0,1,4.61-2.606,10.228,10.228,0,0,1,5.359.141q5.469,1.58,6.594,7.805l-2.693-.047a9.79,9.79,0,0,0-.822-4.743,4.853,4.853,0,0,0-3.195-2.615,6.109,6.109,0,0,0-4.119.2,8.6,8.6,0,0,0-3.524,2.785,13.6,13.6,0,0,0-2.3,4.639,15.069,15.069,0,0,0-.618,5.369,8.459,8.459,0,0,0,1.553,4.413,7.091,7.091,0,0,0,3.927,2.611,7.278,7.278,0,0,0,5.875-.616,12.655,12.655,0,0,0,4.624-5.092l.351.1a13.543,13.543,0,0,1-5.037,5.581,8.3,8.3,0,0,1-6.653.6A10.107,10.107,0,0,1,252.782,423.393Z" fill="#340174"/>
        <path id="Path_47189" data-name="Path 47189" d="M288.286,422.581q.1,1.5.217,2.526t.351,2.568l-2.957.208q0-2.919-.153-5.123l-.358-5.057-9.492.671.358,5.057q.154,2.2.568,5.094l-2.957.209q0-2.919-.153-5.124l-.743-10.529q-.156-2.205-.569-5.1l2.957-.208q0,2.919.153,5.124l.357,5.058,9.493-.671L285,412.23q-.158-2.2-.569-5.094l2.956-.21q-.02,1.566.014,2.592t.14,2.533Z" fill="#340174"/>
        <path id="Path_47190" data-name="Path 47190" d="M309.66,419.214a10.413,10.413,0,0,1-5.618-.925,11.289,11.289,0,0,1-6.255-9.375,10.521,10.521,0,0,1,1.3-5.543,13.331,13.331,0,0,1,9.906-6.609,10.93,10.93,0,0,1,11.885,10.293,10.5,10.5,0,0,1-1.314,5.549,13.436,13.436,0,0,1-9.906,6.61Zm8.568-6.295a9.411,9.411,0,0,0,.431-4.929,12.97,12.97,0,0,0-5.751-8.619,9.406,9.406,0,0,0-4.724-1.506,8.182,8.182,0,0,0-7.753,5.174,9.451,9.451,0,0,0-.421,4.922,13.01,13.01,0,0,0,5.759,8.629,9.435,9.435,0,0,0,4.7,1.5,8.19,8.19,0,0,0,7.754-5.173Z" fill="#340174"/>
        <path id="Path_47191" data-name="Path 47191" d="M331.611,400.825a5.634,5.634,0,0,1-3.884.592,13.905,13.905,0,0,1-5.2-2.386l-5.664-3.831q-1.83-1.238-4.36-2.7l1.661-2.455q2.3,1.8,4.127,3.042l5.663,3.831a17.227,17.227,0,0,0,4.492,2.316,5.208,5.208,0,0,0,3.357.025A5.636,5.636,0,0,0,334.419,397a5.315,5.315,0,0,0,.906-4.91q-.828-2.35-4.727-4.986l-5.664-3.832q-1.249-.843-2.122-1.388t-2.237-1.308l.467-.689q1.218.981,2.047,1.588t2.078,1.453l5.664,3.83a16.086,16.086,0,0,1,4.079,3.67,5.625,5.625,0,0,1,1.2,3.559,7.317,7.317,0,0,1-1.4,3.744A9.9,9.9,0,0,1,331.611,400.825Z" fill="#340174"/>
        <path id="Path_47192" data-name="Path 47192" d="M342.614,380.208q-2.729-1.035-4.846-1.671l-14.619-4.384-.089.3a14.5,14.5,0,0,0-.55,5.454l-1.723.677,4.66-15.541,1.066,1.515a14.521,14.521,0,0,0-2.542,4.857l-.09.3L338.5,376.1q2.118.635,4.966,1.272Z" fill="#340174"/>
      </g>
    </g>
    <g id="Group_4821" data-name="Group 4821">
      <path id="Path_47193" data-name="Path 47193" d="M227.1,343.69a3.988,3.988,0,0,0,1.707-1.137,4.623,4.623,0,0,0,.893-1.91l.38.093a12.367,12.367,0,0,1-1.284,3.407,5.183,5.183,0,0,1-1.964,1.917,8.339,8.339,0,0,1-3.152.852,10.983,10.983,0,0,0-3.327.755,4.252,4.252,0,0,0-1.817,1.419,6.8,6.8,0,0,0-.937,2.26l-.221.91,4.37,1.062q2.146.523,5.026,1.009l-.7,2.88q-2.781-.891-4.927-1.411l-10.257-2.5q-2.146-.522-5.026-1.008L207,347.617a13.6,13.6,0,0,1,2.694-5.846,4.491,4.491,0,0,1,4.784-1.244,4.554,4.554,0,0,1,3.482,2.732,9.961,9.961,0,0,1,.283,5.22,6.919,6.919,0,0,1,2.142-2.757,7.98,7.98,0,0,1,3.734-1.379A13.678,13.678,0,0,0,227.1,343.69Zm-10.127,8.467.479-1.97a7.468,7.468,0,0,0-.11-4.5,5.587,5.587,0,0,0-7.781-1.893,7.455,7.455,0,0,0-2.163,3.942l-.48,1.971Z" fill="#340174"/>
      <path id="Path_47194" data-name="Path 47194" d="M230.792,340.225q-1.244-.955-2.084-1.526t-2.142-1.377l-8.965-5.575c-.867-.539-1.6-.977-2.184-1.312s-1.351-.733-2.289-1.194l6.48-10.421.62,1.763a13.68,13.68,0,0,0-2.3,2.179,20.113,20.113,0,0,0-1.709,2.3l-1.25,2.01,7.772,4.832.878-1.412q.729-1.172,1.279-2.13t1.247-2.424l.795.494q-1.006,1.275-1.623,2.19t-1.344,2.088l-.878,1.413,8.831,5.493,1.539-2.474a29.755,29.755,0,0,0,1.762-3.2,23.643,23.643,0,0,0,1.228-3.478l.795,1.382Z" fill="#340174"/>
      <path id="Path_47195" data-name="Path 47195" d="M246.683,317.648c.514.338.948.6,1.3.787s.8.4,1.334.624l-2.476,2.106a7.461,7.461,0,0,0-.838-.805c-.244-.191-.505-.378-.786-.561s-.478-.315-.6-.4l-4.129-2.768-5.307,4.516L237.3,325.8c.062.151.165.388.311.707s.293.612.437.874a9.25,9.25,0,0,0,.516.825l-.575.489a12.283,12.283,0,0,0-.754-2.09L237,326.09l-7.244-15.855a5.069,5.069,0,0,0-.342-.562,2.507,2.507,0,0,0-.608-.473l2.337-1.989Zm-16.845-8.163L235,320.765l5.148-4.381Z" fill="#340174"/>
      <path id="Path_47196" data-name="Path 47196" d="M252.789,316.424a9.5,9.5,0,0,1-4.771-2.44,12.956,12.956,0,0,1-3.223-4.883,11.16,11.16,0,0,1-.742-5.641,9.7,9.7,0,0,1,2.082-4.867,10.223,10.223,0,0,1,4.344-3.141q5.307-2.062,9.978,2.2l-2.169,1.6a9.81,9.81,0,0,0-3.531-3.271,4.864,4.864,0,0,0-4.128-.139,6.1,6.1,0,0,0-3.148,2.661,8.591,8.591,0,0,0-1.113,4.351,13.667,13.667,0,0,0,.987,5.085,15.142,15.142,0,0,0,2.767,4.643,8.464,8.464,0,0,0,3.914,2.565,7.089,7.089,0,0,0,4.705-.31,7.269,7.269,0,0,0,4.3-4.055,12.682,12.682,0,0,0,.586-6.852l.338-.132a13.546,13.546,0,0,1-.616,7.493,8.293,8.293,0,0,1-4.926,4.509A10.087,10.087,0,0,1,252.789,316.424Z" fill="#340174"/>
      <path id="Path_47197" data-name="Path 47197" d="M283.126,307.234q-.018,1.508.007,2.534t.137,2.59l-2.964-.038q.246-2.908.273-5.118l.063-5.07-9.516-.12-.063,5.07q-.027,2.211.144,5.124l-2.965-.038q.244-2.907.273-5.118l.133-10.556q.027-2.209-.144-5.124l2.964.038q-.246,2.908-.273,5.118l-.063,5.071,9.515.118.065-5.069q.025-2.211-.144-5.124l2.964.038c-.1,1.037-.168,1.9-.2,2.584s-.057,1.53-.071,2.534Z" fill="#340174"/>
      <path id="Path_47198" data-name="Path 47198" d="M297.1,316.11a10.4,10.4,0,0,1-1.379-5.523,11.286,11.286,0,0,1,6.124-9.462,10.534,10.534,0,0,1,5.6-1,13.321,13.321,0,0,1,10,6.472,10.931,10.931,0,0,1-4.734,14.992,10.484,10.484,0,0,1-5.616.995,13.441,13.441,0,0,1-10-6.471Zm9.178,5.368a9.4,9.4,0,0,0,4.7-1.561,12.97,12.97,0,0,0,5.631-8.7,9.414,9.414,0,0,0-.492-4.933,8.185,8.185,0,0,0-7.825-5.065,9.452,9.452,0,0,0-4.685,1.566,13.02,13.02,0,0,0-5.637,8.71,9.442,9.442,0,0,0,.489,4.915,8.186,8.186,0,0,0,7.824,5.065Z" fill="#340174"/>
      <path id="Path_47199" data-name="Path 47199" d="M314.067,330.94a5.62,5.62,0,0,1,.964-3.808,13.889,13.889,0,0,1,4.218-3.864l5.729-3.73q1.853-1.2,4.18-2.969l1.617,2.484q-2.555,1.413-4.406,2.62l-5.73,3.731a17.2,17.2,0,0,0-3.88,3.239,5.205,5.205,0,0,0-1.327,3.083,5.642,5.642,0,0,0,1.071,3.29,5.321,5.321,0,0,0,4.175,2.742q2.485.15,6.429-2.418l5.73-3.731q1.266-.822,2.1-1.416t2.074-1.554l.454.7q-1.377.739-2.259,1.269t-2.147,1.351l-5.73,3.73a16.081,16.081,0,0,1-4.964,2.334,5.633,5.633,0,0,1-3.747-.275A7.318,7.318,0,0,1,315.717,335,9.883,9.883,0,0,1,314.067,330.94Z" fill="#340174"/>
      <path id="Path_47200" data-name="Path 47200" d="M321.945,347.512q2.874-.513,5.016-1.057l14.8-3.75-.076-.3a14.508,14.508,0,0,0-2.331-4.96l1.129-1.467,3.988,15.727-1.694-.752a14.481,14.481,0,0,0-.313-5.472l-.076-.3-14.795,3.75q-2.144.543-4.914,1.46Z" fill="#340174"/>
    </g>
  </g>
</svg>
