<svg id="Group_4796" data-name="Group 4796" xmlns="http://www.w3.org/2000/svg" width="291.57" height="247.192" viewBox="0 0 291.57 247.192">
  <path id="Path_47056" data-name="Path 47056" d="M1747.443,2899c-45.151-26.777-56.176-94.069-25.109-133.223,12.883-16.237,31.447-40.135,64-33.774a60.994,60.994,0,0,1,33.578,19.469c22.953,25.673,21.734,37.879,24.7,64.464C1848.279,2864.228,1793.308,2918.172,1747.443,2899Z" transform="translate(-1642.178 -2697.676)" fill="#d22eff" opacity="0.4"/>
  <g id="Group_4790" data-name="Group 4790" transform="translate(0 115.552)">
    <g id="Group_4771" data-name="Group 4771" transform="translate(69.918 27.133)">
      <g id="Group_4770" data-name="Group 4770">
        <path id="Path_47057" data-name="Path 47057" d="M1782.855,2969.468l-2.587-5.634a2.017,2.017,0,0,0-3.014-.792l-50.438,36.474.553.766h0l.407.839a2.13,2.13,0,0,0-2.482.276,2.946,2.946,0,0,1-3.467.075.944.944,0,0,0-1.074,1.554,5.06,5.06,0,0,0,1.268.613l1.482,2.822a.942.942,0,0,0,.281,1.765,3.225,3.225,0,0,0,.539.043c2.248,0,5.143-2.023,5.757-2.518l.049.089c15.832-8.836,46.135-29.77,52.05-33.877A2.011,2.011,0,0,0,1782.855,2969.468Z" transform="translate(-1720.348 -2962.66)" fill="#fff"/>
      </g>
    </g>
    <g id="Group_4789" data-name="Group 4789">
      <path id="Path_47058" data-name="Path 47058" d="M1617.454,2992.339a2.224,2.224,0,0,1-1.345-.407,1.9,1.9,0,0,1-.751-1.194l1.866-.287a.4.4,0,0,0-.012-.061c.015.038.171.088.487.038,1.087-.171,3.015-.416,5.685-.756,5.941-.755,15.884-2.018,28.379-3.99l.294,1.865c-12.523,1.976-22.484,3.242-28.435,4-2.653.337-4.569.58-5.629.748A3.466,3.466,0,0,1,1617.454,2992.339Z" transform="translate(-1595.016 -2947.678)" fill="#fff"/>
      <path id="Path_47059" data-name="Path 47059" d="M1592.136,2948.033a2.221,2.221,0,0,1-1.345-.407,1.9,1.9,0,0,1-.752-1.193l1.867-.287a.368.368,0,0,0-.012-.061c.015.038.172.088.487.039,1.088-.172,3.016-.417,5.686-.756,5.941-.754,15.884-2.018,28.378-3.99l.294,1.866c-12.522,1.977-22.482,3.242-28.434,4-2.654.337-4.571.58-5.631.748A3.486,3.486,0,0,1,1592.136,2948.033Z" transform="translate(-1581.652 -2924.294)" fill="#fff"/>
      <g id="Group_4788" data-name="Group 4788">
        <g id="Group_4777" data-name="Group 4777" transform="translate(31.517 25.584)">
          <g id="Group_4772" data-name="Group 4772" transform="translate(25.056 18.548)">
            <path id="Path_47060" data-name="Path 47060" d="M1711.011,3003.331c-1.956-1.73-4.537-3.452-6.861-2.294a52.074,52.074,0,0,1,8.6,14.953c.638,1.868-3.712,3.554-5.2,1.708-2.638-4.235-5.714-9.445-7.96-13.9-5.387,2.854-6.084,4.641-5.15,7.572C1698.333,3033.72,1728.475,3021.037,1711.011,3003.331Z" transform="translate(-1693.142 -2999.716)" fill="#fff"/>
            <path id="Path_47061" data-name="Path 47061" d="M1705.212,3023.211a12.057,12.057,0,0,1-1.788-.133c-5.628-.845-9.723-5.53-10.964-12.536-1.146-3.667.231-5.772,5.628-8.631l.852-.451.434.861c2.548,5.053,6.017,10.771,7.881,13.766.546.608,1.909.485,2.819-.018.483-.267.8-.623.726-.828a51.3,51.3,0,0,0-8.386-14.6c-.064-.077-.1-.123-.1-.13l-.6-.893.965-.481c3.3-1.645,6.768,1.424,7.908,2.432l.047.044c5.3,5.378,6.992,11.123,4.631,15.763A11.222,11.222,0,0,1,1705.212,3023.211Zm-7.082-19.173c-4.637,2.609-4.484,4-3.851,5.991l.031.125c1.559,8.94,7.089,10.709,9.395,11.056a9.6,9.6,0,0,0,9.87-4.691c1.965-3.862.409-8.8-4.27-13.557-1.8-1.587-3.3-2.385-4.544-2.409a51.5,51.5,0,0,1,7.825,14.077c.392,1.146-.222,2.331-1.6,3.093-1.624.894-4.009,1.028-5.232-.487l-.066-.094C1703.919,3014.3,1700.674,3008.963,1698.13,3004.039Z" transform="translate(-1692.085 -2998.66)" fill="#fff"/>
          </g>
          <g id="Group_4776" data-name="Group 4776">
            <g id="Group_4773" data-name="Group 4773" transform="translate(0.501 23.491)">
              <path id="Path_47062" data-name="Path 47062" d="M1680.136,3027.894c-.008,0-9.177-15.191-9.611-15.891-.547-.883-.851-1.154-1.734-.609l-26.375,16.292c-.311.459,36.337.4,36.337.4A9.5,9.5,0,0,0,1680.136,3027.894Z" transform="translate(-1641.314 -3010.175)" fill="#fff"/>
              <path id="Path_47063" data-name="Path 47063" d="M1673.452,3027.985c-3.5,0-8.77,0-14.013-.029-18.674-.086-18.72-.175-19.088-.865l-.267-.5.433-.649.172-.106,26.375-16.292c1.784-1.1,2.627.261,3.033.914.225.364,2.728,4.507,5.149,8.515,1.663,2.752,3.37,5.578,4.1,6.775l.208-.054.3.843.273.851-.871.334a1.072,1.072,0,0,1-.349.085,8.347,8.347,0,0,1-1.341.176C1677.513,3027.983,1675.927,3027.985,1673.452,3027.985Zm-29.271-2.087c6.323.169,22.052.209,33.164.2l-3.714-6.147c-2.419-4-4.919-8.142-5.139-8.5a4.732,4.732,0,0,0-.267-.4c-.043.021-.1.052-.168.094Z" transform="translate(-1640.085 -3009.127)" fill="#fff"/>
            </g>
            <g id="Group_4774" data-name="Group 4774" transform="translate(35.094)">
              <path id="Path_47064" data-name="Path 47064" d="M1735.7,2967.85l-20,12.12c-.466.282-.455.564-.078,1.106,2.149,3.094,10.56,12.7,6.9,14.762a1.182,1.182,0,0,0-.385,1.623c.689,1.149,1.039,1.788,1.662,2.675.276.394,51.294-37.278,51.294-37.278C1777.767,2957.919,1737.31,2966.862,1735.7,2967.85Z" transform="translate(-1714.401 -2960.436)" fill="#fff"/>
              <path id="Path_47065" data-name="Path 47065" d="M1722.764,3000.033a1,1,0,0,1-.168-.018l-.392-.064-.234-.328c-.5-.711-.823-1.257-1.27-2.01-.13-.22-.271-.457-.429-.722a2.177,2.177,0,0,1-.234-1.667,2.032,2.032,0,0,1,.965-1.265.753.753,0,0,0,.4-.553c.46-2.244-3.772-7.777-6.046-10.75-.638-.834-1.19-1.556-1.566-2.1a1.87,1.87,0,0,1-.417-1.45,1.56,1.56,0,0,1,.781-1l20-12.118c1.041-.628,10.834-2.87,19.43-4.447,18.761-3.443,20.409-1.881,21.03-1.292a1.586,1.586,0,0,1,.254,2l-.1.185-.169.125c-.127.093-12.806,9.455-25.4,18.683-7.4,5.42-13.322,9.735-17.605,12.824C1724.116,2999.46,1723.241,3000.033,1722.764,3000.033Zm-7.366-20.473c.352.5.867,1.173,1.459,1.947,3.7,4.843,6.98,9.426,6.4,12.277a2.642,2.642,0,0,1-1.323,1.82.157.157,0,0,0-.067.1.281.281,0,0,0,.027.212c.161.268.3.509.434.731.26.438.475.8.708,1.168,4.65-3.094,31.49-22.785,49.882-36.363-1.112-.292-5.092-.6-18.865,1.918-9.488,1.737-18.043,3.807-18.931,4.236Zm19.714-11.948h0Z" transform="translate(-1713.344 -2959.38)" fill="#fff"/>
            </g>
            <g id="Group_4775" data-name="Group 4775" transform="translate(0 39.946)">
              <path id="Path_47066" data-name="Path 47066" d="M1641.028,3047.145c.18,1.934,3.405,5.008,3.405,5.008s25.6.132,37.771-.861c2.3-1.161-2.923-3.749-3.328-5.015.237-.172-24.186,1.045-36.643-.292A1.082,1.082,0,0,0,1641.028,3047.145Z" transform="translate(-1640.079 -3045.033)" fill="#fff"/>
              <path id="Path_47067" data-name="Path 47067" d="M1646.211,3052.046c-1.741,0-2.787,0-2.838,0l-.375,0-.272-.259c-.356-.34-3.486-3.382-3.693-5.6h0a1.993,1.993,0,0,1,.589-1.61,2.023,2.023,0,0,1,1.657-.577c9.424,1.011,25.929.545,32.977.347,4.223-.12,4.222-.119,4.46.577l.012.033a9.753,9.753,0,0,0,1.4,1.277c1.375,1.125,2.673,2.188,2.536,3.443a1.786,1.786,0,0,1-1.092,1.412l-.165.083-.183.015C1671.549,3051.965,1653.235,3052.046,1646.211,3052.046Zm-2.446-1.892c3.2.014,25.612.052,36.928-.83a11.683,11.683,0,0,0-1.759-1.639,10.982,10.982,0,0,1-1.66-1.536c-.6.009-1.721.04-2.965.075-7.086.2-23.681.668-33.232-.358a.16.16,0,0,0-.129.045.1.1,0,0,0-.035.09h0C1641.007,3047.013,1642.556,3048.942,1643.765,3050.154Z" transform="translate(-1639.024 -3043.976)" fill="#fff"/>
            </g>
          </g>
        </g>
        <g id="Group_4787" data-name="Group 4787">
          <g id="Group_4778" data-name="Group 4778" transform="translate(73.106 69.586)">
            <rect id="Rectangle_21901" data-name="Rectangle 21901" width="1.921" height="68.1" rx="0.961" transform="translate(0.746 1.737) rotate(-31.038)" fill="#fff"/>
            <path id="Path_47068" data-name="Path 47068" d="M1763.142,3113.4a1.478,1.478,0,0,1-1.267-.714l-34.566-57.44a1.478,1.478,0,0,1,.5-2.025l.736-.442a1.476,1.476,0,0,1,2.025.5l34.566,57.44a1.476,1.476,0,0,1-.5,2.025l-.736.442A1.469,1.469,0,0,1,1763.142,3113.4Zm-34-58.773,34.14,56.731.027-.017-34.139-56.732Z" transform="translate(-1727.099 -3052.565)" fill="#fff"/>
          </g>
          <g id="Group_4779" data-name="Group 4779" transform="translate(98.543 52.594)">
            <rect id="Rectangle_21902" data-name="Rectangle 21902" width="1.921" height="52.303" rx="0.961" transform="translate(0.747 1.738) rotate(-31.038)" fill="#fff"/>
            <path id="Path_47069" data-name="Path 47069" d="M1808.865,3063.877a1.478,1.478,0,0,1-1.267-.714l-26.42-43.9a1.477,1.477,0,0,1,.5-2.025l.736-.443a1.476,1.476,0,0,1,2.026.5l26.42,43.9a1.476,1.476,0,0,1-.5,2.025l-.736.443A1.47,1.47,0,0,1,1808.865,3063.877Zm.352-1.688Zm-26.207-43.551,25.994,43.2.027-.017-25.994-43.2Z" transform="translate(-1780.967 -3016.579)" fill="#fff"/>
          </g>
          <g id="Group_4780" data-name="Group 4780" transform="translate(33.858 69.032)">
            <rect id="Rectangle_21903" data-name="Rectangle 21903" width="1.921" height="69.381" rx="0.961" transform="matrix(0.857, -0.516, 0.516, 0.857, 0.747, 1.737)" fill="#fff"/>
            <path id="Path_47070" data-name="Path 47070" d="M1680.685,3113.323a1.476,1.476,0,0,1-1.267-.713h0l-35.225-58.538a1.475,1.475,0,0,1,.5-2.025l.736-.442a1.477,1.477,0,0,1,2.025.5l35.225,58.538a1.476,1.476,0,0,1-.5,2.026l-.735.442A1.47,1.47,0,0,1,1680.685,3113.323Zm.35-1.689h0Zm-35.011-58.182,34.8,57.83.028-.017-34.8-57.83Z" transform="translate(-1643.98 -3051.393)" fill="#fff"/>
          </g>
          <g id="Group_4781" data-name="Group 4781" transform="translate(127.183 35.399)">
            <rect id="Rectangle_21904" data-name="Rectangle 21904" width="1.921" height="68.607" rx="0.961" transform="translate(0.747 1.737) rotate(-31.038)" fill="#fff"/>
            <path id="Path_47071" data-name="Path 47071" d="M1877.924,3041.432a1.476,1.476,0,0,1-1.267-.714l-34.827-57.874a1.476,1.476,0,0,1,.5-2.026l.735-.443a1.477,1.477,0,0,1,2.026.5l34.826,57.874a1.476,1.476,0,0,1-.5,2.025l-.736.443A1.463,1.463,0,0,1,1877.924,3041.432Zm.35-1.689h0Zm-34.612-57.519,34.4,57.166.028-.017-34.4-57.166Z" transform="translate(-1841.619 -2980.165)" fill="#fff"/>
          </g>
          <path id="Path_47072" data-name="Path 47072" d="M1877.689,3039.95a1.477,1.477,0,0,1-1.267-.714l-35.336-58.72a1.478,1.478,0,0,1,.5-2.026l2.93-1.763a1.478,1.478,0,0,1,2.025.5l35.336,58.72a1.477,1.477,0,0,1-.5,2.025l-2.931,1.763A1.462,1.462,0,0,1,1877.689,3039.95Zm-34.771-60.054,34.91,58.012,2.222-1.337-34.91-58.011Z" transform="translate(-1714.044 -2942.84)" fill="#fff"/>
          <path id="Path_47073" data-name="Path 47073" d="M1807.267,3058.958a1.438,1.438,0,0,1-.358-.045,1.464,1.464,0,0,1-.909-.671l-28.206-46.871a1.476,1.476,0,0,1,.5-2.025l2.93-1.764a1.476,1.476,0,0,1,2.026.5l28.206,46.871a1.477,1.477,0,0,1-.5,2.026l-2.93,1.763A1.469,1.469,0,0,1,1807.267,3058.958Zm.352-1.689Zm-27.993-46.518,27.78,46.163,2.222-1.337-27.78-46.164Z" transform="translate(-1680.638 -2959.125)" fill="#fff"/>
          <path id="Path_47074" data-name="Path 47074" d="M1763.824,3112.821a1.5,1.5,0,0,1-.359-.044,1.467,1.467,0,0,1-.908-.672l-34.235-56.89a1.475,1.475,0,0,1,.5-2.026l3.661-2.2a1.478,1.478,0,0,1,2.025.5l34.235,56.891a1.477,1.477,0,0,1-.5,2.025l-3.662,2.2A1.465,1.465,0,0,1,1763.824,3112.821Zm.35-1.691v0Zm-34.021-56.536,33.809,56.183,2.953-1.778-33.809-56.183Z" transform="translate(-1654.526 -2982.034)" fill="#fff"/>
          <path id="Path_47075" data-name="Path 47075" d="M1679.572,3111.355a1.479,1.479,0,0,1-1.267-.714l-36-59.818a1.477,1.477,0,0,1,.5-2.025l3.662-2.2a1.476,1.476,0,0,1,2.025.5l36,59.817a1.478,1.478,0,0,1-.5,2.025l-3.661,2.2A1.466,1.466,0,0,1,1679.572,3111.355Zm.351-1.69v0Zm-35.782-59.461,35.57,59.109,2.954-1.778-35.57-59.109Z" transform="translate(-1609.129 -2979.716)" fill="#fff"/>
          <g id="Group_4784" data-name="Group 4784">
            <path id="Path_47076" data-name="Path 47076" d="M1605.363,2984.24l-32.705-53.4a2.54,2.54,0,0,1-.3-1.979,4.235,4.235,0,0,1,1.94-2.449,2.724,2.724,0,0,1,2.114-.224c1.559.4,3.072,1.825,4.5,4.237,3.447,4.9,3.12,5.407,2.8,5.9a1.016,1.016,0,0,1-.607.438,3.625,3.625,0,0,0-.828.848l.01.022c.172.331.325.445.578.445.15,0,1.285-.06,1.574-.086.01,0,.022-.01.035-.017l.215-.12h.154l.563-.112.343.567s2.6,4.3,5.193,8.6c1.3,2.155,2.593,4.313,3.561,5.939,1.883,3.164,1.883,3.164,1.617,3.667l-.25.473-.535.03c-.074,0-.317.05-.472.082a1.388,1.388,0,0,0-.452.287.894.894,0,0,0-.178.823l.014.054a1.834,1.834,0,0,0,.086.326,6.552,6.552,0,0,0,1.076-.045c.571-.049,1.283-.109,2.181-.109h.528l13.354,21.736Zm-29.775-56.273a.64.64,0,0,0-.324.067,2.363,2.363,0,0,0-1.071,1.275.658.658,0,0,0,.073.54l31.682,51.732,2.962-1.973-11.844-19.276c-.585.017-1.08.06-1.5.095-1.365.119-2.776.239-3.166-1.752l0-.014a2.713,2.713,0,0,1,.774-2.7,3.564,3.564,0,0,1,.692-.479c-1.57-2.674-6.069-10.141-9.374-15.6-.587.048-1.616.086-1.627.086a2.457,2.457,0,0,1-2.243-1.442,2.117,2.117,0,0,1-.25-1.012v-.006l0-.072a3.682,3.682,0,0,1,1.441-2.06,41.6,41.6,0,0,0-2.474-3.89l-.041-.065c-1.529-2.6-2.76-3.246-3.358-3.4A1.427,1.427,0,0,0,1575.589,2927.966Zm6.635,9.734Z" transform="translate(-1572.278 -2916.219)" fill="#fff"/>
            <path id="Path_47077" data-name="Path 47077" d="M1683.787,2970.3l-33.855-58.821a3.887,3.887,0,0,1,1.185-5.213h0a3.912,3.912,0,0,1,3.047-.5,4.2,4.2,0,0,1,2.631,2.015l33.154,57.915Zm-31.661-62.436a2.009,2.009,0,0,0-.559,2.669l32.8,56.979,3.118-2.328-32.322-56.461a2.325,2.325,0,0,0-1.446-1.123,2.036,2.036,0,0,0-1.587.262Z" transform="translate(-1612.981 -2905.439)" fill="#fff"/>
            <g id="Group_4782" data-name="Group 4782" transform="translate(37.148)">
              <path id="Path_47078" data-name="Path 47078" d="M1653.348,2912.59c-.978-1.546.168-4.744.021-4.172-.09.347,1.4-.735.961-.421-5.073,3.657,33.609,61.528,33.609,61.528s-1.2,1.05-1.6.287C1677.852,2953.615,1653.786,2913.281,1653.348,2912.59Z" transform="translate(-1652.004 -2906.645)" fill="#fff"/>
              <path id="Path_47079" data-name="Path 47079" d="M1685.727,2969.587a1.485,1.485,0,0,1-.274-.025,1.418,1.418,0,0,1-1.008-.759c-2.653-5.063-6.815-12.459-11.3-20.26-1.893-3.016-3.854-6.186-5.78-9.369-4.6-7.6-8.224-13.972-10.793-18.983-3.027-5.112-5.024-8.452-5.081-8.544h0c-.923-1.457-.479-3.862-.1-4.91v0a1.666,1.666,0,0,1,.238-.481l.5-.533.364.2c.083-.053.184-.118.3-.2l.771-.525,1.088,1.516-.837.6c-.083.115-.814,1.523,3.772,10.712q.271.541.559,1.106c4.333,7.314,10.775,18.267,16.655,28.507,6.849,10.915,12.781,19.8,12.856,19.91l.461.689-.625.546A3.038,3.038,0,0,1,1685.727,2969.587Z" transform="translate(-1650.948 -2905.199)" fill="#fff"/>
            </g>
            <g id="Group_4783" data-name="Group 4783" transform="translate(0.632 9.936)">
              <path id="Path_47080" data-name="Path 47080" d="M1576.239,2934.029c-2.06-3.256,1.7-5.526.939-4.978-5.074,3.657,31.089,53.8,31.089,53.8s.355,1.442-.106.715C1597.794,2967.183,1576.677,2934.721,1576.239,2934.029Z" transform="translate(-1574.671 -2927.681)" fill="#fff"/>
              <path id="Path_47081" data-name="Path 47081" d="M1607.287,2983.278a1.158,1.158,0,0,1-.978-.648c-1.663-2.627-3.609-5.678-5.7-8.95-3.292-4.736-7.551-10.976-11.633-17.284-3.589-5.546-6.529-10.352-8.782-14.351-1.6-2.462-2.94-4.534-3.917-6.038-1.131-1.744-1.814-2.8-1.889-2.914a4.672,4.672,0,0,1,1.3-6.342l.772-.51.543.752a.971.971,0,0,1-.328,1.385c-.07.062-1.235,1.363,5.2,12.788,5.393,8.32,13.609,21.013,20.305,31.468,3.4,4.889,5.756,8.162,5.8,8.226l.107.149.044.178c.151.615.4,1.646-.453,2.011A1.01,1.01,0,0,1,1607.287,2983.278Z" transform="translate(-1573.617 -2926.241)" fill="#fff"/>
            </g>
          </g>
          <g id="Group_4785" data-name="Group 4785" transform="translate(8.523 13.81)">
            <path id="Path_47082" data-name="Path 47082" d="M1593.41,2941.519l-.272-1.87,32.293-4.7a1.32,1.32,0,0,1,.5-.5l.926,1.646a.531.531,0,0,0,.24-.676l.477,1.126Z" transform="translate(-1591.811 -2934.445)" fill="#fff"/>
            <path id="Path_47083" data-name="Path 47083" d="M1595.671,2947.148l-.272-1.87,32.293-4.7a1.315,1.315,0,0,1,.5-.5l.926,1.647a.531.531,0,0,0,.24-.676l.477,1.126Z" transform="translate(-1593.004 -2937.416)" fill="#fff"/>
            <path id="Path_47084" data-name="Path 47084" d="M1592.615,2949.96a2.3,2.3,0,0,1-2.239-1.935,2.221,2.221,0,0,1,1.665-2.677l.436,1.838c-.269.064-.283.3-.247.48a.421.421,0,0,0,.488.4l.28,1.868A2.582,2.582,0,0,1,1592.615,2949.96Z" transform="translate(-1590.328 -2940.199)" fill="#fff"/>
          </g>
          <g id="Group_4786" data-name="Group 4786" transform="translate(20.051 34.839)">
            <rect id="Rectangle_21905" data-name="Rectangle 21905" width="33.649" height="1.888" transform="translate(1.326 4.881) rotate(-8.34)" fill="#fff"/>
            <rect id="Rectangle_21906" data-name="Rectangle 21906" width="33.517" height="1.889" transform="translate(2.394 7.541) rotate(-8.308)" fill="#fff"/>
            <path id="Path_47085" data-name="Path 47085" d="M1617.028,2993.814a2.3,2.3,0,0,1-2.239-1.936,2.221,2.221,0,0,1,1.665-2.677l.436,1.838c-.269.064-.283.3-.247.48a.419.419,0,0,0,.487.4l.281,1.868A2.63,2.63,0,0,1,1617.028,2993.814Z" transform="translate(-1614.741 -2984.375)" fill="#fff"/>
          </g>
        </g>
      </g>
    </g>
  </g>
  <g id="Group_4791" data-name="Group 4791" transform="translate(33.983 18.662)">
    <path id="Path_47086" data-name="Path 47086" d="M1703.428,2729.892c-.032,0-.063,0-.1,0a1.177,1.177,0,0,1-1.075-1.055,14.006,14.006,0,0,0-11.848-12.049,1.143,1.143,0,0,1-1.013-1.061,1.173,1.173,0,0,1,.857-1.215h0c5.6-1.54,9.682-6.553,10.914-13.409a1.21,1.21,0,0,1,1.156-1.089h0a1.167,1.167,0,0,1,1.127,1.041c1.1,6.056,4.526,10.1,10.181,12.029.462.158,1.037.353,1.057,1.037l.019.655-.62.26c-4.315,1.755-7.525,6.464-9.541,13.994A1.149,1.149,0,0,1,1703.428,2729.892Zm-10.283-14.44a16.277,16.277,0,0,1,10.4,10.361c1.873-5.558,4.526-9.429,7.919-11.552a16.148,16.148,0,0,1-9.126-9.977A17.664,17.664,0,0,1,1693.145,2715.452Zm-2.391.875Z" transform="translate(-1668.074 -2700.008)" fill="#fff"/>
    <path id="Path_47087" data-name="Path 47087" d="M1745.839,2829.391a.974.974,0,0,1-.963-.824c-.689-4.31-3.5-9.033-8.047-9.228h0a.984.984,0,0,1-.205-1.936c5.035-1.331,6.891-7.131,7.549-10.47l.144-.734.777-.057a1.023,1.023,0,0,1,1.007.758c1.227,4.534,3.861,7.188,7.615,7.677a1.05,1.05,0,0,1,.985.686l.184.57-.439.414c-3.552,3.322-7.577,7.087-7.625,12.17a.978.978,0,0,1-.906.974Zm-6.08-11.314a11.576,11.576,0,0,1,5.885,6.383c1.186-3.295,3.684-5.957,6.2-8.355a10.53,10.53,0,0,1-6.549-5.93C1744.115,2813.834,1742.222,2816.534,1739.758,2818.077Zm-2.65,1.15h0Zm-.2-1.775h0Z" transform="translate(-1692.611 -2756.024)" fill="#fff"/>
    <path id="Path_47088" data-name="Path 47088" d="M1803.556,2765.093a4.126,4.126,0,0,1-3.527-1.763c-1.246-1.788-1.27-4.776-.056-7.107a4.983,4.983,0,0,1,4.374-2.961h.008c2.451,0,4.227,2.018,4.42,5.024.192,2.976-1.312,6.355-4.476,6.759A5.937,5.937,0,0,1,1803.556,2765.093Zm.793-9.942h0a3.217,3.217,0,0,0-2.7,1.944,5.4,5.4,0,0,0-.07,5.155,2.413,2.413,0,0,0,2.481.921c2.021-.258,2.966-2.646,2.831-4.763-.035-.544-.322-3.257-2.535-3.257Z" transform="translate(-1725.966 -2728.115)" fill="#fff"/>
    <path id="Path_47089" data-name="Path 47089" d="M1788.1,2734.7a3,3,0,0,1-2.11-.891,4.191,4.191,0,0,1-.976-4.407,2.992,2.992,0,0,1,3.039-1.793h0a3.436,3.436,0,0,1,3.168,3.012,3.258,3.258,0,0,1-1.74,3.763A3.3,3.3,0,0,1,1788.1,2734.7Zm-.171-5.2c-.906,0-1.107.479-1.175.639a2.312,2.312,0,0,0,.55,2.317,1.159,1.159,0,0,0,1.412.2,1.445,1.445,0,0,0,.649-1.683c-.137-.72-.612-1.456-1.364-1.477Z" transform="translate(-1718.401 -2714.575)" fill="#fff"/>
    <path id="Path_47090" data-name="Path 47090" d="M1647.4,2783.695a3.352,3.352,0,0,1-2.978-1.8,2.1,2.1,0,0,1,.585-2.462,2.645,2.645,0,0,1,1.807-.578,4.157,4.157,0,0,0,.459-.035h0a2.192,2.192,0,0,1,1.913.764,2.435,2.435,0,0,1,.625,2.236,2.367,2.367,0,0,1-2.159,1.862C1647.573,2783.691,1647.488,2783.695,1647.4,2783.695Zm.151-3.005a5.8,5.8,0,0,1-.657.054,2.011,2.011,0,0,0-.6.076c-.2.185-.167.256-.141.313a1.56,1.56,0,0,0,1.343.67.487.487,0,0,0,.488-.442.514.514,0,0,0-.093-.381A.746.746,0,0,0,1647.555,2780.689Zm-.014,0Zm.052,0h0Z" transform="translate(-1644.245 -2741.594)" fill="#fff"/>
  </g>
  <g id="Group_4795" data-name="Group 4795" transform="translate(129.459)">
    <g id="Group_4792" data-name="Group 4792" transform="translate(2.562 1.721)">
      <path id="Path_47091" data-name="Path 47091" d="M2050.641,2926.2c-.022.019-.045.037-.067.056C2050.617,2926.226,2050.668,2926.191,2050.641,2926.2Z" transform="translate(-1956.744 -2802.45)" fill="#fff"/>
      <path id="Path_47092" data-name="Path 47092" d="M2078.462,2809.317c.159-.63-2.3-1.676-3.4.749-.619,1.365-28.4,50.692-32.927,56.4-.92,1.793,1.628,3.03,2.976.127a189.737,189.737,0,0,0,13.325-22.053C2064.526,2833.5,2072.815,2819.97,2078.462,2809.317Z" transform="translate(-1952.186 -2740.352)" fill="#fff"/>
      <path id="Path_47093" data-name="Path 47093" d="M2078.817,2808.057c.159-.63-2.657-.9-3.755,1.522-.619,1.365-28.4,50.692-32.927,56.4-.92,1.793,1.628,3.03,2.976.126a189.754,189.754,0,0,0,13.325-22.052C2064.526,2833.016,2073.169,2818.71,2078.817,2808.057Z" transform="translate(-1952.186 -2739.866)" fill="#fff"/>
      <path id="Path_47094" data-name="Path 47094" d="M1998.491,2807.79c.159-.63-1.263-3.633-2.361-1.209-.619,1.366-28.855,51.061-32.9,58.122.454,1.215,1.491,2.43,2.554.576,4.645-8.1,7.912-14.138,12.685-22.266C1984.555,2831.976,1992.844,2818.443,1998.491,2807.79Z" transform="translate(-1910.641 -2738.826)" fill="#fff"/>
      <path id="Path_47095" data-name="Path 47095" d="M1953.869,2773.307c.115-.463-1.261-2.253-2.048-.471-.443,1-21.755,38.154-24.658,43.346.326.893,2.041,2.34,4.086-1.317,3.33-5.955,5.671-10.395,9.092-16.37C1944.707,2790.379,1949.822,2781.138,1953.869,2773.307Z" transform="translate(-1891.608 -2721.098)" fill="#fff"/>
      <path id="Path_47096" data-name="Path 47096" d="M2105.741,2746.422c.471.074,3.383-1.231,1.479-1.645-1.073-.233-28.747-2.979-34.415-4.783-.81.5-2.153,1.731,1.985,2.388C2081.4,2743.432,2097.034,2745.038,2105.741,2746.422Z" transform="translate(-1968.018 -2704.172)" fill="#fff"/>
      <path id="Path_47097" data-name="Path 47097" d="M2130.258,2702.116c.471.075,3.384-1.231,1.48-1.645-1.073-.233-28.747-2.979-34.415-4.783-.81.5-1.94,1.3,2.2,1.961C2106.126,2698.7,2121.551,2700.732,2130.258,2702.116Z" transform="translate(-1981.007 -2680.787)" fill="#fff"/>
      <path id="Path_47098" data-name="Path 47098" d="M1888.671,2736.42c.368-.642-2-2.312-2.965-.318-.651,1.348-29.541,51.435-33.717,58.136-.684,1.1,1.717,1.575,2.139.766,2.225-4.266,8.911-15.31,13.6-23.475C1873.987,2760.61,1883.51,2745.414,1888.671,2736.42Z" transform="translate(-1851.866 -2701.617)" fill="#fff"/>
      <path id="Path_47099" data-name="Path 47099" d="M2075.648,2666.044c.322-.562-1.072-3.348-2.561-.958-.792,1.27-27.1,49.086-31.275,55.788-.685,1.1,1.954,1.552,2.376.743,2.225-4.266,6.276-11.208,10.962-19.373C2061.415,2691.323,2069.31,2677.09,2075.648,2666.044Z" transform="translate(-1952.06 -2664.132)" fill="#fff"/>
      <path id="Path_47100" data-name="Path 47100" d="M2151.449,2686.082c.337-.549-.443-4.3-1.909-1.918-.778,1.268-23.835,42.665-30.07,52.816-.674,1.1,1.649,1.448,2.069.637C2123.753,2733.343,2145.007,2696.571,2151.449,2686.082Z" transform="translate(-1993.043 -2674.29)" fill="#fff"/>
    </g>
    <g id="Group_4793" data-name="Group 4793" transform="translate(38.339 28.168)">
      <path id="Path_47101" data-name="Path 47101" d="M2021.855,2771.323a2.946,2.946,0,0,0-2.493-1.5,1.71,1.71,0,0,0-.409.085c-.959-.115-.994.577-.592,1.05a1.05,1.05,0,0,0,.382.458,1.471,1.471,0,0,0,.442.291,1.611,1.611,0,0,0,.454.3C2020.441,2772.426,2022.177,2772.211,2021.855,2771.323Z" transform="translate(-1975.392 -2746.362)" fill="#fff"/>
      <path id="Path_47102" data-name="Path 47102" d="M2021,2785.334a3.352,3.352,0,0,0-2.321-.245.656.656,0,0,0-.515.606.828.828,0,0,0,.347,1.1C2020.467,2788.064,2023.9,2786.871,2021,2785.334Z" transform="translate(-1975.368 -2754.358)" fill="#fff"/>
      <path id="Path_47103" data-name="Path 47103" d="M2062.074,2771.323a2.947,2.947,0,0,0-2.493-1.5,1.712,1.712,0,0,0-.409.085c-.958-.115-.993.577-.592,1.05a1.047,1.047,0,0,0,.382.458,1.475,1.475,0,0,0,.441.291,1.613,1.613,0,0,0,.454.3C2060.66,2772.426,2062.395,2772.211,2062.074,2771.323Z" transform="translate(-1996.619 -2746.362)" fill="#fff"/>
      <path id="Path_47104" data-name="Path 47104" d="M2061.22,2785.334a3.353,3.353,0,0,0-2.322-.245.657.657,0,0,0-.516.606.829.829,0,0,0,.347,1.1C2060.685,2788.064,2064.117,2786.871,2061.22,2785.334Z" transform="translate(-1996.595 -2754.358)" fill="#fff"/>
      <path id="Path_47105" data-name="Path 47105" d="M2080.831,2769.989c-.959-.115-.994.577-.592,1.05a1.9,1.9,0,0,0,1.091.813,9.487,9.487,0,0,1,1.132.005C2083.264,2772.271,2080.951,2769.948,2080.831,2769.989Z" transform="translate(-2008.051 -2746.444)" fill="#fff"/>
      <path id="Path_47106" data-name="Path 47106" d="M2082.88,2785.334a3.353,3.353,0,0,0-2.322-.245.656.656,0,0,0-.515.606.829.829,0,0,0,.347,1.1C2082.345,2788.064,2085.777,2786.871,2082.88,2785.334Z" transform="translate(-2008.027 -2754.358)" fill="#fff"/>
      <path id="Path_47107" data-name="Path 47107" d="M2102.628,2785.334a3.352,3.352,0,0,0-2.321-.245.656.656,0,0,0-.515.606.829.829,0,0,0,.347,1.1C2102.093,2788.064,2105.525,2786.871,2102.628,2785.334Z" transform="translate(-2018.451 -2754.358)" fill="#fff"/>
      <path id="Path_47108" data-name="Path 47108" d="M1998.369,2771.323a2.946,2.946,0,0,0-2.493-1.5,1.709,1.709,0,0,0-.409.085c-.959-.115-.994.577-.592,1.05a1.047,1.047,0,0,0,.382.458,1.472,1.472,0,0,0,.442.291,1.611,1.611,0,0,0,.454.3C1996.955,2772.426,1998.69,2772.211,1998.369,2771.323Z" transform="translate(-1962.995 -2746.362)" fill="#fff"/>
      <path id="Path_47109" data-name="Path 47109" d="M1998.369,2741.071a2.945,2.945,0,0,0-2.493-1.5,1.709,1.709,0,0,0-.409.085c-.959-.116-.994.577-.592,1.05a1.047,1.047,0,0,0,.382.458,1.472,1.472,0,0,0,.442.291,1.617,1.617,0,0,0,.454.3C1996.955,2742.173,1998.69,2741.958,1998.369,2741.071Z" transform="translate(-1962.995 -2730.395)" fill="#fff"/>
      <path id="Path_47110" data-name="Path 47110" d="M1997.515,2755.081a3.351,3.351,0,0,0-2.321-.244.657.657,0,0,0-.515.606.829.829,0,0,0,.347,1.1C1996.98,2757.811,2000.413,2756.617,1997.515,2755.081Z" transform="translate(-1962.972 -2738.391)" fill="#fff"/>
      <path id="Path_47111" data-name="Path 47111" d="M2040.947,2755.986a3.353,3.353,0,0,0-2.321-.245.656.656,0,0,0-.515.606.829.829,0,0,0,.347,1.1C2040.413,2758.715,2043.845,2757.521,2040.947,2755.986Z" transform="translate(-1985.896 -2738.868)" fill="#fff"/>
      <path id="Path_47112" data-name="Path 47112" d="M2020.762,2755.081a3.351,3.351,0,0,0-2.321-.244.656.656,0,0,0-.516.606.829.829,0,0,0,.347,1.1C2020.227,2757.811,2023.659,2756.617,2020.762,2755.081Z" transform="translate(-1975.241 -2738.391)" fill="#fff"/>
      <path id="Path_47113" data-name="Path 47113" d="M2020.762,2739.967a3.351,3.351,0,0,0-2.321-.244.655.655,0,0,0-.516.606.829.829,0,0,0,.347,1.1C2020.227,2742.7,2023.659,2741.5,2020.762,2739.967Z" transform="translate(-1975.241 -2730.414)" fill="#fff"/>
      <path id="Path_47114" data-name="Path 47114" d="M1997.56,2725.5a3.354,3.354,0,0,0-2.322-.245.656.656,0,0,0-.516.607.83.83,0,0,0,.347,1.1C1997.025,2728.229,2000.457,2727.036,1997.56,2725.5Z" transform="translate(-1962.996 -2722.777)" fill="#fff"/>
      <path id="Path_47115" data-name="Path 47115" d="M2103.663,2800.484a3.353,3.353,0,0,0-2.322-.244.656.656,0,0,0-.516.606.829.829,0,0,0,.347,1.1C2103.128,2803.214,2106.56,2802.021,2103.663,2800.484Z" transform="translate(-2018.997 -2762.354)" fill="#fff"/>
      <path id="Path_47116" data-name="Path 47116" d="M1930.561,2720.5a3.351,3.351,0,0,0-2.321-.244.656.656,0,0,0-.516.606.829.829,0,0,0,.347,1.1C1930.026,2723.232,1933.458,2722.04,1930.561,2720.5Z" transform="translate(-1927.633 -2720.14)" fill="#fff"/>
      <path id="Path_47117" data-name="Path 47117" d="M1952.477,2720.5a3.351,3.351,0,0,0-2.321-.244.656.656,0,0,0-.516.606.829.829,0,0,0,.348,1.1C1951.942,2723.232,1955.374,2722.04,1952.477,2720.5Z" transform="translate(-1939.201 -2720.14)" fill="#fff"/>
      <path id="Path_47118" data-name="Path 47118" d="M1976.284,2725.5a3.354,3.354,0,0,0-2.321-.245.656.656,0,0,0-.515.607.829.829,0,0,0,.347,1.1C1975.75,2728.229,1979.182,2727.036,1976.284,2725.5Z" transform="translate(-1951.766 -2722.777)" fill="#fff"/>
      <path id="Path_47119" data-name="Path 47119" d="M1948.195,2732.862a3.353,3.353,0,0,0-2.321-.245.656.656,0,0,0-.516.607.829.829,0,0,0,.347,1.1C1947.66,2735.592,1951.092,2734.4,1948.195,2732.862Z" transform="translate(-1936.94 -2726.663)" fill="#fff"/>
      <path id="Path_47120" data-name="Path 47120" d="M1972,2735.36a3.355,3.355,0,0,0-2.321-.244.656.656,0,0,0-.515.607.829.829,0,0,0,.347,1.1C1971.467,2738.09,1974.9,2736.9,1972,2735.36Z" transform="translate(-1949.506 -2727.982)" fill="#fff"/>
      <path id="Path_47121" data-name="Path 47121" d="M1976.284,2753.487a3.351,3.351,0,0,0-2.321-.245.656.656,0,0,0-.515.606.829.829,0,0,0,.347,1.1C1975.75,2756.217,1979.182,2755.023,1976.284,2753.487Z" transform="translate(-1951.766 -2737.549)" fill="#fff"/>
      <path id="Path_47122" data-name="Path 47122" d="M2076.18,2797.986a3.356,3.356,0,0,0-2.321-.245.656.656,0,0,0-.515.607.829.829,0,0,0,.347,1.1C2075.645,2800.716,2079.077,2799.522,2076.18,2797.986Z" transform="translate(-2004.491 -2761.036)" fill="#fff"/>
      <path id="Path_47123" data-name="Path 47123" d="M2045.23,2796.96a3.353,3.353,0,0,0-2.321-.244.657.657,0,0,0-.516.607.829.829,0,0,0,.347,1.1C2044.695,2799.69,2048.127,2798.5,2045.23,2796.96Z" transform="translate(-1988.155 -2760.494)" fill="#fff"/>
    </g>
    <g id="Group_4794" data-name="Group 4794">
      <path id="Path_47124" data-name="Path 47124" d="M1975.843,2768.367c-10.159-6.041-19.25-12.222-28.041-18.2-8.866-6.029-18.034-12.263-28.37-18.41l.966-1.623c10.385,6.176,19.578,12.426,28.467,18.471,8.768,5.962,17.835,12.127,27.945,18.139Z" transform="translate(-1884.965 -2697.247)" fill="#fff"/>
      <path id="Path_47125" data-name="Path 47125" d="M2049.86,2803.065a48.216,48.216,0,0,1-11.515-1.178l.457-1.833c7.521,1.874,17.316,1.014,26.786.183,3.986-.35,7.75-.68,11.35-.817.034,0,.066,0,.1,0l.026-.042c.553-.926,2.024-3.384,1.874-4.047a.309.309,0,0,0,.125.156l1.015-1.593c1.785,1.139.023,4.086-1.393,6.453-.248.414-.462.771-.589,1.015a1,1,0,0,1-1.211.639.9.9,0,0,1-.654-.662c-3.319.15-6.8.456-10.474.779C2060.417,2802.587,2054.979,2803.065,2049.86,2803.065Z" transform="translate(-1947.728 -2730.9)" fill="#fff"/>
      <path id="Path_47126" data-name="Path 47126" d="M1981.495,2732.107c-1.987-1.155-3.908-2.3-5.766-3.41-7.46-4.452-14.507-8.657-24.371-12.554-.451-.149-4-.717-26.888-2.667a4.178,4.178,0,0,0-4.454,3.44,9.212,9.212,0,0,0,.249,4.27l-1.824.494a11.085,11.085,0,0,1-.287-5.078,6.081,6.081,0,0,1,6.476-5.008c25.95,2.211,27.019,2.633,27.422,2.792,10.006,3.953,17.117,8.2,24.645,12.689,1.853,1.106,3.77,2.25,5.747,3.4Z" transform="translate(-1884.201 -2687.451)" fill="#fff"/>
      <rect id="Rectangle_21907" data-name="Rectangle 21907" width="1.889" height="28.423" transform="matrix(0.517, -0.856, 0.856, 0.517, 101.92, 47.65)" fill="#fff"/>
      <path id="Path_47127" data-name="Path 47127" d="M2039.938,2721.283a2.621,2.621,0,0,1-.856-.143h0a12.431,12.431,0,0,1-1.169-.478,3.457,3.457,0,0,1-1.556-4.832l30.076-53.57a3.657,3.657,0,0,1,6.346,3.629c-5.172,10.421-26.352,46.874-30.546,54.076A2.659,2.659,0,0,1,2039.938,2721.283Zm29.53-58.9a1.5,1.5,0,0,0-1.38.792L2038,2716.757a1.561,1.561,0,0,0-.125,1.261,1.536,1.536,0,0,0,.824.931c.37.17.7.307.991.406h0a.756.756,0,0,0,.905-.337c4.188-7.194,25.342-43.6,30.487-53.967a1.654,1.654,0,0,0-.658-2.432A2.122,2.122,0,0,0,2069.468,2662.381Z" transform="translate(-1946.445 -2660.488)" fill="#fff"/>
      <path id="Path_47128" data-name="Path 47128" d="M2116.08,2737.315a3.24,3.24,0,0,1-2.835-1.567,3.894,3.894,0,0,1-.214-3.838c.819-1.7,2.546-4.621,5.409-9.46,1.421-2.4,3.133-5.3,5.173-8.781.624-1.636,2.306-1.253,3.121-1.066,1.183.268,1.2.2,1.322-.3a.885.885,0,0,0-.13-.8,1.1,1.1,0,0,0-.869-.423l-.812-.5c-.267-.5-.267-.5,1.555-3.659.936-1.626,2.189-3.784,3.443-5.94,2.508-4.309,5.023-8.6,5.023-8.6l1.165-.4a1.908,1.908,0,0,0,2.157-.241c.068-.136-.131-.5-.763-.924a1.007,1.007,0,0,1-.573-.421c-.333-.5-.647-.979,2.7-5.895,1.388-2.431,2.867-3.863,4.395-4.254a2.626,2.626,0,0,1,2.024.216,2.886,2.886,0,0,1,1.575,1.677c.481,1.619-.707,3.685-3.881,9.207-.821,1.427-1.773,3.083-2.86,5.015l-.05.014.031.019c-.141.23-5.22,8.805-7.887,13.308-.1.176-10.768,18.768-14.738,24.9-.209.522-1.086,2.409-2.88,2.677A4.02,4.02,0,0,1,2116.08,2737.315Zm9.314-23.01a.517.517,0,0,0-.028.069l-.079.174c-2.061,3.521-3.788,6.441-5.22,8.863-2.837,4.8-4.55,7.69-5.333,9.318a1.992,1.992,0,0,0,.072,1.953l.026.04a1.411,1.411,0,0,0,1.565.679c.756-.113,1.318-1.261,1.427-1.563l.1-.193c3.9-6,14.635-24.714,14.743-24.9l7.563-12.764c.112-.187.224-.377.346-.542l-.016-.01c1.09-1.937,2.045-3.6,2.868-5.03,2.468-4.294,3.958-6.885,3.708-7.728-.02-.069-.075-.253-.652-.548l-.066-.037a.842.842,0,0,0-.6-.016c-.573.147-1.758.783-3.241,3.392l-.04.065a41.785,41.785,0,0,0-2.4,3.9c1.831,1.365,1.349,2.744,1.141,3.157a3.367,3.367,0,0,1-3.752,1.387c-3.2,5.47-7.543,12.921-9.05,15.575a2.9,2.9,0,0,1,.968.832,2.766,2.766,0,0,1,.441,2.406c-.574,2.348-2.6,1.888-3.569,1.666A3.755,3.755,0,0,0,2125.395,2714.305Zm13.724-25.347a.731.731,0,0,0-.147.015l.566.1A.841.841,0,0,0,2139.118,2688.959Z" transform="translate(-1986.934 -2670.858)" fill="#fff"/>
      <path id="Path_47129" data-name="Path 47129" d="M1850.418,2794.312a1.833,1.833,0,0,1-.972-.281l-2.114-1.315a1.929,1.929,0,0,1-.633-2.589l33.608-57.743a1.859,1.859,0,0,1,1.166-.879,1.839,1.839,0,0,1,1.419.226l2.114,1.315a1.928,1.928,0,0,1,.632,2.59l-33.609,57.743a1.861,1.861,0,0,1-1.612.933Zm31.51-60.957-33.6,57.722,2.112,1.351,33.563-57.742.5-.839-.5.8Z" transform="translate(-1846.441 -2697.942)" fill="#fff"/>
      <path id="Path_47130" data-name="Path 47130" d="M2040.523,2868.122a1.84,1.84,0,0,1-.974-.281l-2.83-1.76a1.933,1.933,0,0,1-.634-2.6l33.49-56.908.78-.465c.533-.019,1.353-.056,2.217-.1,1.511-.069,3.073-.141,3.648-.141l.816,1.42-34.9,59.893a1.869,1.869,0,0,1-1.616.935Zm30.417-60.143-33.226,56.46,2.832,1.8,34-58.42c-.593.025-1.259.056-1.887.085S2071.43,2807.958,2070.941,2807.979Z" transform="translate(-1946.398 -2737.223)" fill="#fff"/>
      <path id="Path_47131" data-name="Path 47131" d="M1960.774,2864.859a1.87,1.87,0,0,1-1-.3l-2.92-1.852a1.986,1.986,0,0,1-.654-2.633l32.895-57.728a1.865,1.865,0,0,1,2.629-.656l2.921,1.853a1.986,1.986,0,0,1,.655,2.632l-32.9,57.729a1.87,1.87,0,0,1-1.626.951Zm29.935-61.568-32.872,57.723a.088.088,0,0,0,.025.1l2.921,1.852,32.873-57.723a.089.089,0,0,0-.024-.1h0Z" transform="translate(-1904.237 -2734.862)" fill="#fff"/>
      <path id="Path_47132" data-name="Path 47132" d="M1926.183,2816.707a1.78,1.78,0,0,1-.963-.286l-1.993-1.276a1.883,1.883,0,0,1-.624-2.512l24.457-43.337a1.331,1.331,0,0,1,.895-.631,3.566,3.566,0,0,1,1.805.214l.042-.051.253.2a1.207,1.207,0,0,0,.186.1l.038.012.137.072,1.153.738a1.087,1.087,0,0,1,.206.172,1.9,1.9,0,0,1,.419,2.34l-24.458,43.336a1.778,1.778,0,0,1-1.552.913Zm22.357-46.19-24.293,43.046,1.9,1.208,24.4-43.229,0,0-.049-.046-1.01-.646a3.2,3.2,0,0,1-.412-.217A2.908,2.908,0,0,0,1948.54,2770.517Zm2.008,1.019.006,0Zm-.154-.129a.736.736,0,0,0,.067.065Zm-1.289-.758Z" transform="translate(-1886.51 -2717.561)" fill="#fff"/>
      <path id="Path_47133" data-name="Path 47133" d="M2107.22,2745.494a14.326,14.326,0,0,1-2.712-.338l-30.327-4.5.278-1.869,30.4,4.515c2.323.469,2.887.26,2.91.251a.611.611,0,0,0-.278.326l1.75.71C2108.994,2745.2,2108.358,2745.494,2107.22,2745.494Z" transform="translate(-1966.642 -2701.813)" fill="#fff"/>
      <path id="Path_47134" data-name="Path 47134" d="M2130.931,2702.047c-1.023-.167-2.877-.411-5.442-.747-5.756-.757-15.39-2.023-27.5-4l.3-1.864c12.082,1.971,21.7,3.234,27.442,3.989,2.583.339,4.449.584,5.5.756Z" transform="translate(-1979.208 -2678.934)" fill="#fff"/>
      <rect id="Rectangle_21908" data-name="Rectangle 21908" width="1.889" height="32.694" transform="translate(120.258 15.502) rotate(-81.557)" fill="#fff"/>
      <rect id="Rectangle_21909" data-name="Rectangle 21909" width="1.889" height="32.712" transform="translate(119.222 18.041) rotate(-81.352)" fill="#fff"/>
      <rect id="Rectangle_21910" data-name="Rectangle 21910" width="1.889" height="33.127" transform="translate(108.423 36.006) rotate(-81.438)" fill="#fff"/>
      <path id="Path_47135" data-name="Path 47135" d="M2107.554,2745.409c-7.955-1.437-32.136-4.846-32.379-4.88l.264-1.87c.243.034,24.46,3.448,32.451,4.892Z" transform="translate(-1967.167 -2701.747)" fill="#fff"/>
      <path id="Path_47136" data-name="Path 47136" d="M2144.159,2747.871a2.4,2.4,0,0,1-.365-.028l.29-1.866c.3.046.4-.22.429-.383.025-.127.055-.429-.22-.5l.45-1.834a2.221,2.221,0,0,1,1.622,2.7A2.254,2.254,0,0,1,2144.159,2747.871Z" transform="translate(-2003.385 -2704.177)" fill="#fff"/>
      <path id="Path_47137" data-name="Path 47137" d="M2167.417,2703.813a2.278,2.278,0,0,1-.369-.031l.305-1.864c.285.049.385-.277.416-.418,0-.021.108-.53-.226-.615l.473-1.829a2.3,2.3,0,0,1,1.6,2.835A2.278,2.278,0,0,1,2167.417,2703.813Z" transform="translate(-2015.658 -2680.844)" fill="#fff"/>
    </g>
  </g>
</svg>
