<svg xmlns="http://www.w3.org/2000/svg" width="62.774" height="62.773" viewBox="0 0 62.774 62.773"><defs><style>.a,.d{fill:none;}.a{stroke:#340174;stroke-width:1.5px;}.b{fill:#340174;}.c{stroke:none;}</style></defs><g transform="translate(-1500.252 -9511.398)"><g class="a" transform="translate(1500.252 9511.398)"><ellipse class="c" cx="31.387" cy="31.387" rx="31.387" ry="31.387"/><ellipse class="d" cx="31.387" cy="31.387" rx="30.637" ry="30.637"/></g><path class="b" d="M14.037,38.7a7.233,7.233,0,1,0,7.233,7.233A7.222,7.222,0,0,0,14.037,38.7Zm0,11.936a4.7,4.7,0,1,1,4.7-4.7A4.711,4.711,0,0,1,14.037,50.634ZM23.254,38.4a1.687,1.687,0,1,1-1.687-1.687A1.683,1.683,0,0,1,23.254,38.4Zm4.791,1.712A8.349,8.349,0,0,0,25.766,34.2a8.4,8.4,0,0,0-5.911-2.279c-2.329-.132-9.311-.132-11.64,0A8.392,8.392,0,0,0,2.3,34.2,8.377,8.377,0,0,0,.024,40.108c-.132,2.329-.132,9.311,0,11.64A8.349,8.349,0,0,0,2.3,57.659a8.415,8.415,0,0,0,5.911,2.279c2.329.132,9.311.132,11.64,0a8.349,8.349,0,0,0,5.911-2.279,8.4,8.4,0,0,0,2.279-5.911C28.177,49.419,28.177,42.444,28.044,40.114ZM25.035,54.247a4.761,4.761,0,0,1-2.682,2.682c-1.857.737-6.264.567-8.316.567s-6.465.164-8.316-.567A4.761,4.761,0,0,1,3.04,54.247c-.737-1.857-.567-6.264-.567-8.316s-.164-6.465.567-8.316a4.761,4.761,0,0,1,2.682-2.682c1.857-.737,6.264-.567,8.316-.567s6.465-.164,8.316.567a4.761,4.761,0,0,1,2.682,2.682c.737,1.857.567,6.264.567,8.316S25.772,52.4,25.035,54.247Z" transform="translate(1518.275 9496.783)"/></g></svg>