<svg xmlns="http://www.w3.org/2000/svg" width="62.774" height="62.773" viewBox="0 0 62.774 62.773"><defs><style>.a,.d{fill:none;}.a{stroke:#340174;stroke-width:1.5px;}.b{fill:#340174;}.c{stroke:none;}</style></defs><g transform="translate(-1578.504 -9511.398)"><g class="a" transform="translate(1578.504 9511.398)"><ellipse class="c" cx="31.387" cy="31.387" rx="31.387" ry="31.387"/><ellipse class="d" cx="31.387" cy="31.387" rx="30.637" ry="30.637"/></g><path class="b" d="M47.932,67.708a4.235,4.235,0,0,0-2.98-3C42.324,64,31.785,64,31.785,64s-10.539,0-13.168.709a4.235,4.235,0,0,0-2.98,3,47.682,47.682,0,0,0,0,16.33,4.172,4.172,0,0,0,2.98,2.951c2.628.709,13.168.709,13.168.709s10.539,0,13.168-.709a4.172,4.172,0,0,0,2.98-2.951,47.682,47.682,0,0,0,0-16.33ZM28.338,80.884V70.862l8.809,5.011Z" transform="translate(1578.316 9466.938)"/></g></svg>